<svg id="Group_48" data-name="Group 48" xmlns="http://www.w3.org/2000/svg" width="277.314" height="60.649" viewBox="0 0 277.314 60.649">
  <path id="Path_1490" data-name="Path 1490" d="M46.589,202.729a29.052,29.052,0,0,0,8.842,21.479,29.51,29.51,0,0,0,21.479,8.842,26,26,0,0,0,4.753-.367,28.628,28.628,0,0,0,16.658-8.475c.733-.73,1.463-1.461,2.192-2.265,2.337-2.629,4.748-5.552,7.236-8.841l7.377-9.864-8.255-11.762a86.791,86.791,0,0,0-6.358-8.038q-1.094-1.1-2.192-2.193a28.207,28.207,0,0,0-16.658-8.478,26,26,0,0,0-4.753-.367,29.216,29.216,0,0,0-21.479,8.845A28.939,28.939,0,0,0,46.589,202.729Z" transform="translate(-46.588 -172.4)" fill="#b0000e"/>
  <path id="Path_1491" data-name="Path 1491" d="M92.421,218.519a5.489,5.489,0,1,1,3.882,1.61A5.3,5.3,0,0,1,92.421,218.519Zm9.374,3.966a5.493,5.493,0,0,1-5.491,5.5,5.247,5.247,0,0,1-3.875-1.619.173.173,0,0,1-.047-.031v3.88a8.443,8.443,0,0,0,3.922.913,8.632,8.632,0,0,0,8.628-8.642v-16.5l-3.137,1.572v.394a8.642,8.642,0,1,0,0,13.357Z" transform="translate(-65.356 -187.742)" fill="#fff"/>
  <g id="Group_8680" data-name="Group 8680" transform="translate(77.664 11.815)">
    <path id="Path_1492" data-name="Path 1492" d="M196.719,209.792a6.85,6.85,0,0,1,4.872,2.287v-1.99h2.436v14.556c0,5.317-3.594,7.872-7.813,7.872a9.472,9.472,0,0,1-5.436-1.6V228.3a10.632,10.632,0,0,0,5.436,1.842c2.882,0,5.377-1.664,5.377-4.6v-3.119a6.266,6.266,0,0,1-5.11,2.97c-3.832,0-6.922-3.119-6.922-7.635,0-4.9,3.09-7.961,7.16-7.961Zm-4.634,7.961c0,2.882,1.9,5.228,4.782,5.228,2.7,0,4.753-2.317,4.724-5.5l-.03-2.852a5.481,5.481,0,0,0-4.4-2.436C193.987,212.2,192.085,214.873,192.085,217.754Z" transform="translate(-189.56 -201.296)" fill="#0b090b"/>
    <path id="Path_1493" data-name="Path 1493" d="M234.2,212.079v-1.99h2.436v14.854H234.2v-2.525a6.265,6.265,0,0,1-5.109,2.97c-3.832,0-6.922-3.119-6.922-7.635,0-4.9,3.089-7.961,7.159-7.961A6.85,6.85,0,0,1,234.2,212.079Zm-9.506,5.674c0,2.882,1.9,5.258,4.783,5.258,2.7,0,4.753-2.347,4.723-5.526l-.03-2.852a5.514,5.514,0,0,0-4.4-2.466C226.592,212.168,224.691,214.872,224.691,217.753Z" transform="translate(-204.454 -201.296)" fill="#0b090b"/>
    <path id="Path_1494" data-name="Path 1494" d="M264.565,210.921v2.614a7.156,7.156,0,0,0-3.892-1.367c-1.871,0-2.792,1.07-2.792,2.02,0,.743.445,1.6,1.812,2.079l2.5.891a3.793,3.793,0,0,1,2.881,3.684c0,2.525-2.287,4.545-5.466,4.545a9.647,9.647,0,0,1-4.575-1.307v-2.614a9.1,9.1,0,0,0,4.4,1.545c1.871,0,3.03-.921,3.03-2.168,0-.951-.743-1.426-2.139-1.931l-2.2-.8c-2.317-.862-2.852-2.228-2.852-3.921,0-2.525,2.05-4.4,5.228-4.4A7.654,7.654,0,0,1,264.565,210.921Z" transform="translate(-219.466 -201.296)" fill="#0b090b"/>
    <path id="Path_1495" data-name="Path 1495" d="M282.049,206.742h4.337v2.287h-4.337v8.7a1.757,1.757,0,0,0,1.931,1.99,4.565,4.565,0,0,0,2.525-.713V221a4.406,4.406,0,0,1-3.06,1.04c-2.525,0-3.832-1.664-3.832-4.189v-8.823h-2.852v-.713c1.931-.862,3.179-2.911,4.159-5.852h1.129Z" transform="translate(-229.393 -197.948)" fill="#0b090b"/>
    <path id="Path_1496" data-name="Path 1496" d="M308.789,210.208v2.911a3.645,3.645,0,0,0-2.169-.772c-2.02,0-3.119,1.634-4.218,3.624v8.972h-2.436V210.089H302.4v2.971c1.129-1.961,2.881-3.268,4.575-3.268A3.969,3.969,0,0,1,308.789,210.208Z" transform="translate(-239.992 -201.296)" fill="#0b090b"/>
    <path id="Path_1497" data-name="Path 1497" d="M334.067,217.6a7.754,7.754,0,1,1-7.753-7.813A7.671,7.671,0,0,1,334.067,217.6Zm-12.982,0a5.232,5.232,0,1,0,5.228-5.436A5.2,5.2,0,0,0,321.085,217.6Z" transform="translate(-248.486 -201.296)" fill="#0b090b"/>
    <path id="Path_1498" data-name="Path 1498" d="M363.374,209.69v5.674a4.384,4.384,0,0,0-2.466-.713,3.61,3.61,0,0,0-3.149,2.258v7.783H352.65v-15.15h5.109v2.7c.951-1.6,1.99-3,3.892-3A3.62,3.62,0,0,1,363.374,209.69Z" transform="translate(-264.058 -201.046)" fill="#0b090b"/>
    <path id="Path_1499" data-name="Path 1499" d="M381.348,208.971a6.027,6.027,0,0,1,4.219,1.842v-1.4h5.109v15.151h-5.109v-2.525a4.882,4.882,0,0,1-4.516,2.971c-3.386,0-6.535-2.554-6.535-8.05,0-5.11,3.149-7.991,6.832-7.991Zm-1.485,7.991a2.686,2.686,0,0,0,2.7,2.881,3.041,3.041,0,0,0,3-3.178v-1.456a5.239,5.239,0,0,0-3.149-1.248A2.788,2.788,0,0,0,379.862,216.962Z" transform="translate(-274.046 -200.921)" fill="#0b090b"/>
    <path id="Path_1500" data-name="Path 1500" d="M425.145,215.21v9.358h-5.109l-.029-8.556a1.861,1.861,0,0,0-2.02-2.05,2.827,2.827,0,0,0-2.376,1.456v9.15H410.5V209.417h5.109v1.96a5.13,5.13,0,0,1,4.278-2.406C422.976,208.972,425.145,211.111,425.145,215.21Z" transform="translate(-290.483 -200.921)" fill="#0b090b"/>
    <path id="Path_1501" data-name="Path 1501" d="M450.4,214.409l-1.783,1.9V219.7h-5.109V198.308h5.109v12.328l4.843-6.09h6.179l-6.09,6.506,6.595,8.645H453.4Z" transform="translate(-305.561 -196.05)" fill="#0b090b"/>
    <path id="Path_1502" data-name="Path 1502" d="M483.3,202.647V217.8h-5.108V206.806h-2.467v-4.159Zm-6.06-5.407a3.145,3.145,0,0,1,3.179-3.09,3.091,3.091,0,1,1-3.179,3.09Z" transform="translate(-320.277 -194.151)" fill="#0b090b"/>
    <path id="Path_1503" data-name="Path 1503" d="M510.594,215.21v9.358h-5.11l-.029-8.556a1.861,1.861,0,0,0-2.02-2.05,2.827,2.827,0,0,0-2.377,1.456v9.15h-5.109V209.417h5.109v1.96a5.13,5.13,0,0,1,4.278-2.406C508.426,208.972,510.594,211.111,510.594,215.21Z" transform="translate(-329.515 -200.921)" fill="#0b090b"/>
    <path id="Path_1504" data-name="Path 1504" d="M538.4,210.813v-1.4h5.11v14.7c0,4.812-4.248,8.02-8.912,8.02a12.375,12.375,0,0,1-6.387-1.6v-4.516a13.571,13.571,0,0,0,5.912,1.515c2.466,0,4.278-1.633,4.278-3.386v-2.109a4.882,4.882,0,0,1-4.516,2.971c-3.386,0-6.535-2.554-6.535-8.05,0-5.11,3.149-7.991,6.833-7.991A6.026,6.026,0,0,1,538.4,210.813Zm-3.149,3.148a2.788,2.788,0,0,0-2.555,3,2.686,2.686,0,0,0,2.7,2.881,3.041,3.041,0,0,0,3-3.178V215.21a5.238,5.238,0,0,0-3.149-1.248Z" transform="translate(-343.857 -200.921)" fill="#0b090b"/>
  </g>
</svg>
