<svg id="Group_10811" data-name="Group 10811" xmlns="http://www.w3.org/2000/svg" xmlns:xlink="http://www.w3.org/1999/xlink" width="654" height="893" viewBox="0 0 654 893">
    <defs>
        <clipPath id="clip-path">
            <rect id="Rectangle_1742" data-name="Rectangle 1742" width="654" height="893" transform="translate(-22234 -2023)" fill="#fff" stroke="#707070" stroke-width="1"/>
        </clipPath>
    </defs>
    <g id="Group_10810" data-name="Group 10810">
        <g id="Mask_Group_1" data-name="Mask Group 1" transform="translate(22234 2023)" opacity="0.83" clip-path="url(#clip-path)">
            <path id="Path_1664" data-name="Path 1664" d="M358.631,1657.79c166.077,155.7,373.673,249.115,558.434,249.115,118.329,0,217.976-39.443,286.482-112.1,180.609-193.064,97.571-566.738-186.836-834.536-166.077-155.7-375.749-249.115-558.434-249.115-118.33,0-217.976,39.443-286.483,112.1-182.685,190.988-97.57,564.661,186.836,834.536ZM130.275,783.81C209.162,698.7,323.34,655.1,458.277,655.1c201.368,0,417.268,97.57,597.877,265.723,307.242,290.635,392.357,699.6,190.988,915.5-78.887,85.115-193.064,128.71-328,128.71-197.216,0-421.42-99.647-595.8-265.724C14.022,1408.675-71.093,997.634,130.275,783.81ZM1614.588,983.1C1591.753,468.265,1282.434,59.3,919.141,59.3H898.381C719.849,67.6,555.848,173.478,435.442,358.239c-56.051,87.19-99.646,188.912-128.71,298.938,12.456-4.152,26.988-6.227,39.443-10.38h2.076l43.6-6.228c85.114-286.483,278.179-489.927,508.611-500.307h18.683c317.622,0,593.725,379.9,614.485,846.992,12.456,261.571-56.051,498.231-172.3,664.308h0a457.817,457.817,0,0,1-37.367,105.875c0,2.076-2.076,4.151-2.076,4.151l-24.911,43.6c-10.38,14.532-22.836,29.063-35.291,43.6s-26.987,26.988-41.519,39.443c-2.076,2.076-4.152,4.151-6.228,4.151-14.532,10.38-31.14,20.76-45.671,31.14,271.95-128.71,465.016-504.459,446.331-940.411ZM369.011,738.14c-18.684,95.494-26.988,195.14-22.835,301.014,10.38,230.432,80.962,444.256,201.368,606.181,116.254,155.7,261.571,240.812,413.117,240.812h8.3c-16.608,2.076-33.216,2.076-51.9,2.076-116.254,0-242.888-39.443-361.218-107.95-164-168.153-276.1-433.876-290.635-739.042a1334.944,1334.944,0,0,1,16.608-276.1c26.988-12.457,56.051-22.837,87.191-26.988" transform="translate(-22419.836 -2481.033)" fill="#fff"/>
        </g>
    </g>
</svg>
