<svg xmlns="http://www.w3.org/2000/svg" width="80" height="80" viewBox="0 0 80 80">
    <g id="Group_10598" data-name="Group 10598" transform="translate(-491 -194)">
        <path id="Path_5098" data-name="Path 5098" d="M40,0A40,40,0,1,1,0,40,40,40,0,0,1,40,0Z" transform="translate(491 194)" fill="#b2a4c5"/>
    </g>
    <g id="Group_10608" data-name="Group 10608" transform="translate(-387.252 -1108.5)">
        <g id="Group_10609" data-name="Group 10609">
            <text id="CO2" transform="translate(409.137 1172.48)" font-size="17" font-family="Raleway-SemiBold, Raleway" font-weight="600"><tspan x="0" y="0">CO2</tspan></text>
        </g>
    </g>
    <g id="Group_10740" data-name="Group 10740" transform="translate(-591 -3088)">
        <g id="Union_9" data-name="Union 9" transform="translate(-2063 6017)" fill="none">
            <path d="M2685-2883a9,9,0,0,1-9-9,9,9,0,0,1,7.072-8.793A10.1,10.1,0,0,1,2683-2902a10,10,0,0,1,10-10,10,10,0,0,1,10,10,10.1,10.1,0,0,1-.072,1.207A9,9,0,0,1,2710-2892a9,9,0,0,1-9,9Z" stroke="none"/>
            <path d="M 2701 -2884.999755859375 C 2704.85986328125 -2884.999755859375 2708 -2888.139892578125 2708 -2891.999755859375 C 2708 -2893.629638671875 2707.45703125 -2895.157470703125 2706.429931640625 -2896.417724609375 C 2705.4306640625 -2897.644287109375 2704.035400390625 -2898.50390625 2702.50146484375 -2898.838623046875 L 2700.724853515625 -2899.226318359375 L 2700.942138671875 -2901.031494140625 C 2700.980224609375 -2901.349853515625 2700.999755859375 -2901.67578125 2700.999755859375 -2901.999755859375 C 2700.999755859375 -2906.410888671875 2697.410888671875 -2909.99951171875 2692.999755859375 -2909.99951171875 C 2688.588623046875 -2909.99951171875 2685 -2906.410888671875 2685 -2901.999755859375 C 2685 -2901.675537109375 2685.01953125 -2901.349853515625 2685.0576171875 -2901.031494140625 L 2685.27490234375 -2899.226318359375 L 2683.49853515625 -2898.838623046875 C 2681.964599609375 -2898.50390625 2680.5693359375 -2897.64404296875 2679.56982421875 -2896.417724609375 C 2678.542724609375 -2895.157470703125 2677.999755859375 -2893.629638671875 2677.999755859375 -2891.999755859375 C 2677.999755859375 -2888.139892578125 2681.139892578125 -2884.999755859375 2684.999755859375 -2884.999755859375 L 2701 -2884.999755859375 M 2701 -2882.999755859375 L 2684.999755859375 -2882.999755859375 C 2680.030029296875 -2882.999755859375 2675.999755859375 -2887.030029296875 2675.999755859375 -2891.999755859375 C 2675.999755859375 -2896.308837890625 2679.028076171875 -2899.91015625 2683.072021484375 -2900.792724609375 C 2683.0244140625 -2901.1884765625 2683 -2901.591064453125 2683 -2901.999755859375 C 2683 -2907.52294921875 2687.4775390625 -2911.99951171875 2692.999755859375 -2911.99951171875 C 2698.523193359375 -2911.99951171875 2702.999755859375 -2907.52294921875 2702.999755859375 -2901.999755859375 C 2702.999755859375 -2901.591064453125 2702.975341796875 -2901.1884765625 2702.927734375 -2900.792724609375 C 2706.971923828125 -2899.910400390625 2710 -2896.308837890625 2710 -2891.999755859375 C 2710 -2887.030029296875 2705.970703125 -2882.999755859375 2701 -2882.999755859375 Z" stroke="none" fill="#000"/>
        </g>
        <path id="Path_5157" data-name="Path 5157" d="M-2037.609,6028.011s-6.858-1.568-10.641,6.016" transform="translate(2676.5 -2911.089)" fill="none" stroke="#000" stroke-linecap="round" stroke-width="2"/>
    </g>
</svg>
