<svg xmlns="http://www.w3.org/2000/svg" id="Componente_65_1" data-name="Componente 65 1" viewBox="0 0 42.67 42.67"><defs><style>.cls-1{fill:#ff8053;}.cls-2{fill:#646464;}</style></defs><title>Mesa de trabajo 1</title><path id="Trazado_433" data-name="Trazado 433" class="cls-1" d="M8.32,42.67a.92.92,0,0,1-.77-.27,2.36,2.36,0,0,1-1.31-2.9l2.87-7.37H6.76A6.76,6.76,0,0,1,0,25.38V6.85A6.93,6.93,0,0,1,6.76,0H35.9a6.93,6.93,0,0,1,6.76,6.85V25.28a6.92,6.92,0,0,1-6.76,6.85H30.59a2.37,2.37,0,0,1,0-4.74H35.9A2.34,2.34,0,0,0,38.24,25V6.58a2.36,2.36,0,0,0-2.32-2.37H6.76A2.36,2.36,0,0,0,4.42,6.56V25a2.35,2.35,0,0,0,2.32,2.37h5.49a2,2,0,0,1,1.82,1.05,2,2,0,0,1,.26,2.11l-3.9,10.54A2.2,2.2,0,0,1,8.32,42.67Z"/><path class="cls-2" d="M23.28,30.17a1.92,1.92,0,0,0-.18-.35,2.48,2.48,0,0,0-.25-.3,1.48,1.48,0,0,0-.31-.25,1.86,1.86,0,0,0-.34-.19,1.66,1.66,0,0,0-.38-.11A2,2,0,0,0,21,29a1.58,1.58,0,0,0-.37.11,2.37,2.37,0,0,0-.35.19,1.42,1.42,0,0,0-.3.25,1.81,1.81,0,0,0-.25.3,1.92,1.92,0,0,0-.18.35,2.29,2.29,0,0,0-.12.37,2.58,2.58,0,0,0,0,.39,2.45,2.45,0,0,0,0,.39c0,.13.07.26.11.38a2.27,2.27,0,0,0,.19.34,1.42,1.42,0,0,0,.25.3,2,2,0,0,0,2.83,0,2.48,2.48,0,0,0,.25-.3,2.21,2.21,0,0,0,.18-.34,2.2,2.2,0,0,0,.15-.77,1.72,1.72,0,0,0,0-.39A1.58,1.58,0,0,0,23.28,30.17Z"/><path class="cls-2" d="M26.17,11a6.54,6.54,0,0,0-4.6-2h-.28c-3.82,0-6.7,2.59-6.7,6a2,2,0,1,0,4,0c0-1.39,1.4-2,2.75-2h.13A2.6,2.6,0,0,1,24,15.6a2.69,2.69,0,0,1-1.15,2.11l-.1.07c-3.09,2.41-3.62,5.45-3.44,6.87a2,2,0,0,0,2,1.75h.25a2,2,0,0,0,1.74-2.24A4.17,4.17,0,0,1,25.17,21,6.68,6.68,0,0,0,28,15.71,6.57,6.57,0,0,0,26.17,11Z"/></svg>