<svg xmlns="http://www.w3.org/2000/svg" width="44.726" height="14.735" viewBox="0 0 44.726 14.735">
    <g id="Group_10563" data-name="Group 10563" transform="translate(-410.774 -1128)">
        <text id="CO2" transform="translate(435.5 1138.682)" fill="#354052" font-size="10" font-family="Raleway-Regular, Raleway"><tspan x="0" y="0">CO2</tspan></text>
        <path id="Path_1299" data-name="Path 1299" d="M13.41,16.739H5.653A4.654,4.654,0,0,1,4.108,7.694a5.43,5.43,0,1,1,10.847,0,4.654,4.654,0,0,1-1.545,9.045Zm0-9.308a3.878,3.878,0,1,0-7.752.188l.054,1.154-1.089.383a3.1,3.1,0,0,0,1.03,6.031H13.41A3.1,3.1,0,1,0,10.466,11.1l-1.472-.491A4.657,4.657,0,0,1,13.41,7.431Z" transform="translate(409.779 1125.996)"/>
    </g>
</svg>
