<svg xmlns="http://www.w3.org/2000/svg" width="24" height="24" viewBox="0 0 24 24">
    <g id="Group_10818" data-name="Group 10818" transform="translate(-631 -1182)">
        <path id="Path_5165" data-name="Path 5165" d="M3.072,12.5a6.875,6.875,0,0,1-.71-1.628,2.066,2.066,0,0,0,0-3.742A6.936,6.936,0,0,1,4.18,4.092a2.249,2.249,0,0,0,2.277.058A2.083,2.083,0,0,0,7.543,2.221a7.521,7.521,0,0,1,3.637,0,2.083,2.083,0,0,0,1.087,1.929,2.249,2.249,0,0,0,2.277-.059A7.025,7.025,0,0,1,15.652,5.5a6.844,6.844,0,0,1,.71,1.628,2.066,2.066,0,0,0,0,3.742A6.936,6.936,0,0,1,14.544,13.9a2.249,2.249,0,0,0-2.277-.058,2.083,2.083,0,0,0-1.086,1.929,7.521,7.521,0,0,1-3.637,0,2.083,2.083,0,0,0-1.087-1.929A2.249,2.249,0,0,0,4.18,13.9,7.044,7.044,0,0,1,3.072,12.5Zm4.111.137a3.524,3.524,0,0,1,1.634,1.939,6.018,6.018,0,0,0,1.089,0,3.525,3.525,0,0,1,1.635-1.939,3.745,3.745,0,0,1,2.56-.4,5.505,5.505,0,0,0,.543-.908,3.407,3.407,0,0,1,0-4.667,5.64,5.64,0,0,0-.545-.908,3.745,3.745,0,0,1-2.559-.395A3.524,3.524,0,0,1,9.907,3.423a6.018,6.018,0,0,0-1.089,0A3.525,3.525,0,0,1,7.183,5.361a3.745,3.745,0,0,1-2.56.4,5.545,5.545,0,0,0-.543.908,3.407,3.407,0,0,1,0,4.667,5.64,5.64,0,0,0,.545.908A3.745,3.745,0,0,1,7.183,12.635ZM9.362,11.1A2.1,2.1,0,1,1,11.541,9,2.14,2.14,0,0,1,9.362,11.1Zm0-1.4A.7.7,0,1,0,8.636,9,.713.713,0,0,0,9.362,9.7Z" transform="translate(633.638 1185.002)" fill="#3a84ff"/>
        <g id="Rectangle_2888" data-name="Rectangle 2888" transform="translate(631 1182)" fill="none" stroke="#707070" stroke-width="1">
            <rect width="24" height="24" rx="4" stroke="none"/>
            <rect x="0.5" y="0.5" width="23" height="23" rx="3.5" fill="none"/>
        </g>
    </g>
</svg>
