<svg xmlns="http://www.w3.org/2000/svg" xmlns:xlink="http://www.w3.org/1999/xlink" width="213.702" height="75.986" viewBox="0 0 213.702 75.986">
    <defs>
        <clipPath id="clip-path">
            <rect id="Rectangle_899" data-name="Rectangle 899" width="213.702" height="75.986"/>
        </clipPath>
    </defs>
    <g id="Group_10016" data-name="Group 10016" transform="translate(-939.666 -139)">
        <path id="Path_435" data-name="Path 435" d="M311.66,195.6a.56.56,0,0,1,.582-.582.535.535,0,0,1,.582.582v.194h0a2.23,2.23,0,0,1,1.94-.824,2.143,2.143,0,0,1,2.376,2.279v3.394a.56.56,0,0,1-.582.582.535.535,0,0,1-.582-.582v-3.152a1.384,1.384,0,0,0-1.552-1.552,1.468,1.468,0,0,0-1.6,1.455v3.2a.56.56,0,0,1-.582.582.535.535,0,0,1-.582-.582V195.6Zm-3.2,3.734a4.136,4.136,0,0,0,.145-1.212,3.917,3.917,0,0,0-.145-1.212,1.58,1.58,0,0,0-1.552-.97,1.516,1.516,0,0,0-1.552.97,3.914,3.914,0,0,0-.145,1.212,3.711,3.711,0,0,0,.145,1.212,1.58,1.58,0,0,0,1.552.97,1.516,1.516,0,0,0,1.552-.97Zm-4.267.339a4.325,4.325,0,0,1-.242-1.552,4.036,4.036,0,0,1,.242-1.5,2.7,2.7,0,0,1,2.716-1.649,2.635,2.635,0,0,1,2.716,1.649,4.23,4.23,0,0,1,.242,1.5,4.328,4.328,0,0,1-.242,1.552,2.7,2.7,0,0,1-2.716,1.649,2.809,2.809,0,0,1-2.716-1.649Zm-3.2-4.073a.56.56,0,0,1,.582-.582.535.535,0,0,1,.582.582v5.043a.56.56,0,0,1-.582.582.535.535,0,0,1-.582-.582Zm-.194-2.425a.783.783,0,1,1,.776.679.69.69,0,0,1-.776-.679Zm-2.182,8.05c-1.406,0-1.94-.533-1.94-1.794v-3.394a.1.1,0,0,0-.1-.1h-.388c-.339,0-.533-.194-.533-.436s.194-.436.533-.436h.388a.1.1,0,0,0,.1-.1v-1.309a.56.56,0,0,1,.582-.582.535.535,0,0,1,.582.582v1.309a.1.1,0,0,0,.1.1h.921c.339,0,.533.194.533.436s-.194.436-.533.436h-.921c-.049,0-.1,0-.1.1v3.346c0,.63.194.824.921.824.388,0,.582.194.582.485s-.194.485-.63.485h-.1Zm-4.267-.582a.56.56,0,0,1-.582.582.535.535,0,0,1-.582-.582v-.194h0a2.194,2.194,0,0,1-1.891.824,2.143,2.143,0,0,1-2.376-2.279V195.6a.56.56,0,0,1,.582-.582.535.535,0,0,1,.582.582v3.152a1.37,1.37,0,0,0,1.5,1.552,1.427,1.427,0,0,0,1.552-1.455V195.6a.56.56,0,0,1,.582-.582.535.535,0,0,1,.582.582v5.043Zm-7.613.582c-1.212,0-1.7-.533-1.7-1.6v-6.546a.56.56,0,0,1,.582-.582.535.535,0,0,1,.582.582v6.449c0,.485.194.679.679.679a.515.515,0,0,1,.582.485c0,.291-.194.485-.63.485h-.1Zm-4.849-1.891a4.131,4.131,0,0,0,.146-1.212,3.914,3.914,0,0,0-.146-1.212,1.579,1.579,0,0,0-1.552-.97,1.516,1.516,0,0,0-1.552.97,3.917,3.917,0,0,0-.145,1.212,3.712,3.712,0,0,0,.145,1.212,1.58,1.58,0,0,0,1.552.97,1.516,1.516,0,0,0,1.552-.97Zm-4.267.339a4.326,4.326,0,0,1-.242-1.552,3.243,3.243,0,0,1,.242-1.5,2.7,2.7,0,0,1,2.715-1.649,2.634,2.634,0,0,1,2.716,1.649,4.228,4.228,0,0,1,.242,1.5,3.47,3.47,0,0,1-.242,1.552,2.7,2.7,0,0,1-2.716,1.649,2.809,2.809,0,0,1-2.715-1.649Zm-8.2.776a.59.59,0,0,1-.291-.485.566.566,0,0,1,.63-.533.914.914,0,0,1,.388.1,4.89,4.89,0,0,0,2.425.679c1.358,0,2.182-.582,2.182-1.455,0-.727-.485-1.164-2.037-1.406l-.485-.048c-1.988-.291-2.909-1.018-2.909-2.376,0-1.5,1.212-2.522,3.2-2.522a5.917,5.917,0,0,1,2.57.582c.242.146.339.291.339.485,0,.291-.242.485-.582.485a1.416,1.416,0,0,1-.436-.1,5.409,5.409,0,0,0-1.988-.436c-1.212,0-1.843.582-1.843,1.406,0,.727.485,1.164,2.037,1.358l.485.049c1.988.242,2.909,1.018,2.909,2.425,0,1.5-1.212,2.57-3.588,2.57a5.285,5.285,0,0,1-3.007-.776Zm-9.7,2.958c-.388,0-.582-.194-.582-.485s.194-.485.582-.485c.582,0,.873-.194,1.212-.921l.242-.533-2.328-5.189a.437.437,0,0,1-.049-.242c0-.291.242-.485.582-.485a.585.585,0,0,1,.582.388l1.794,4.17h.049l1.746-4.17a.585.585,0,0,1,.582-.388c.34,0,.582.194.582.485a2.1,2.1,0,0,1-.049.242l-2.57,5.964c-.582,1.358-1.164,1.7-2.134,1.7h-.242Zm-2.522-2.182c-1.212,0-1.7-.533-1.7-1.6v-6.546a.56.56,0,0,1,.582-.582.535.535,0,0,1,.582.582v6.449c0,.485.194.679.679.679a.515.515,0,0,1,.582.485c0,.291-.194.485-.63.485h-.1Zm-4.849-1.891a3.084,3.084,0,0,0,.145-1.212,3.915,3.915,0,0,0-.145-1.212,1.513,1.513,0,0,0-1.5-.97,1.417,1.417,0,0,0-1.5.97,3.084,3.084,0,0,0-.145,1.212,3.916,3.916,0,0,0,.145,1.212,1.513,1.513,0,0,0,1.5.97,1.417,1.417,0,0,0,1.5-.97Zm-4.364,3.588V195.6a.56.56,0,0,1,.582-.582.535.535,0,0,1,.582.582v.145h0a2.17,2.17,0,0,1,1.94-.824,2.428,2.428,0,0,1,2.376,1.5,5.728,5.728,0,0,1,0,3.3,2.323,2.323,0,0,1-2.376,1.5,2.112,2.112,0,0,1-1.94-.824h0v2.425a.56.56,0,0,1-.582.582.468.468,0,0,1-.582-.485Zm-3.2-3.588a3.084,3.084,0,0,0,.145-1.212,3.915,3.915,0,0,0-.145-1.212,1.513,1.513,0,0,0-1.5-.97,1.417,1.417,0,0,0-1.5.97,3.083,3.083,0,0,0-.146,1.212,3.915,3.915,0,0,0,.146,1.212,1.513,1.513,0,0,0,1.5.97,1.454,1.454,0,0,0,1.5-.97Zm-4.413,3.588V195.6a.56.56,0,0,1,.582-.582.535.535,0,0,1,.582.582v.145h0a2.17,2.17,0,0,1,1.94-.824,2.385,2.385,0,0,1,2.376,1.5,4.224,4.224,0,0,1,.242,1.649,5.377,5.377,0,0,1-.242,1.649,2.323,2.323,0,0,1-2.376,1.5,2.112,2.112,0,0,1-1.94-.824h0v2.425a.56.56,0,0,1-.582.582.486.486,0,0,1-.582-.485Zm-2.182-2.279a.56.56,0,0,1-.582.582.535.535,0,0,1-.582-.582v-.194h0a2.194,2.194,0,0,1-1.891.824,2.143,2.143,0,0,1-2.376-2.279V195.6a.56.56,0,0,1,.582-.582.535.535,0,0,1,.582.582v3.152a1.37,1.37,0,0,0,1.5,1.552,1.427,1.427,0,0,0,1.552-1.455V195.6a.56.56,0,0,1,.582-.582.535.535,0,0,1,.582.582v5.043Zm-13.82-.194a.59.59,0,0,1-.291-.485.566.566,0,0,1,.63-.533.914.914,0,0,1,.388.1,4.89,4.89,0,0,0,2.425.679c1.358,0,2.182-.582,2.182-1.455,0-.727-.436-1.164-2.037-1.406l-.485-.048c-1.988-.291-2.91-1.018-2.91-2.376,0-1.5,1.212-2.522,3.2-2.522a5.917,5.917,0,0,1,2.57.582c.242.146.339.291.339.485a.515.515,0,0,1-.582.485,1.417,1.417,0,0,1-.436-.1,5.408,5.408,0,0,0-1.988-.436c-1.212,0-1.843.582-1.843,1.406,0,.727.485,1.164,2.037,1.358l.485.049c1.988.242,2.909,1.018,2.909,2.425,0,1.5-1.212,2.57-3.588,2.57a5.4,5.4,0,0,1-3.006-.776Zm-5.48.776c-1.212,0-1.7-.533-1.7-1.6v-6.546a.56.56,0,0,1,.582-.582.535.535,0,0,1,.582.582v6.449c0,.485.194.679.679.679a.473.473,0,0,1,.533.485c0,.291-.194.485-.63.485H218.9Zm-5.237-1.891a3.084,3.084,0,0,0,.145-1.212,4.132,4.132,0,0,0-.145-1.212,1.513,1.513,0,0,0-1.5-.97,1.454,1.454,0,0,0-1.5.97,3.083,3.083,0,0,0-.146,1.212,3.915,3.915,0,0,0,.146,1.212,1.513,1.513,0,0,0,1.5.97,1.417,1.417,0,0,0,1.5-.97Zm.145,1.309v-.194h0a2.17,2.17,0,0,1-1.94.824,2.385,2.385,0,0,1-2.376-1.5,5.727,5.727,0,0,1,0-3.3,2.323,2.323,0,0,1,2.376-1.5,2.112,2.112,0,0,1,1.94.824h0V195.6a.574.574,0,0,1,.63-.582.535.535,0,0,1,.582.582v5.043a.56.56,0,0,1-.582.582.6.6,0,0,1-.63-.582Zm-7.322-1.309a3.084,3.084,0,0,0,.145-1.212,4.133,4.133,0,0,0-.145-1.212,1.513,1.513,0,0,0-1.5-.97,1.417,1.417,0,0,0-1.5.97,3.084,3.084,0,0,0-.145,1.212,3.918,3.918,0,0,0,.145,1.212,1.513,1.513,0,0,0,1.5.97,1.494,1.494,0,0,0,1.5-.97Zm-4.413,1.309v-7.565a.56.56,0,0,1,.582-.582.535.535,0,0,1,.582.582v2.716h0a2.17,2.17,0,0,1,1.94-.824,2.428,2.428,0,0,1,2.376,1.5,5.727,5.727,0,0,1,0,3.3,2.323,2.323,0,0,1-2.376,1.5,2.17,2.17,0,0,1-1.94-.824h0v.145a.56.56,0,0,1-.582.582.5.5,0,0,1-.582-.533Zm-3.2-1.309a4.133,4.133,0,0,0,.145-1.212,3.914,3.914,0,0,0-.145-1.212,1.58,1.58,0,0,0-1.552-.97,1.516,1.516,0,0,0-1.552.97,3.913,3.913,0,0,0-.146,1.212,3.708,3.708,0,0,0,.146,1.212,1.579,1.579,0,0,0,1.552.97,1.478,1.478,0,0,0,1.552-.97Zm-4.267.339a4.326,4.326,0,0,1-.242-1.552,3.244,3.244,0,0,1,.242-1.5,2.7,2.7,0,0,1,2.716-1.649,2.634,2.634,0,0,1,2.715,1.649,4.226,4.226,0,0,1,.243,1.5,4.323,4.323,0,0,1-.243,1.552,2.74,2.74,0,0,1-2.715,1.649,2.809,2.809,0,0,1-2.716-1.649Zm-1.988,1.552c-1.261,0-1.7-.533-1.7-1.6v-6.546a.56.56,0,0,1,.582-.582.535.535,0,0,1,.582.582v6.449c0,.485.194.679.679.679a.515.515,0,0,1,.582.485c0,.291-.194.485-.63.485h-.1Zm-3.928-6.934a.825.825,0,0,1,.048.339.566.566,0,0,1-.63.533c-.339,0-.485-.194-.63-.485a2.316,2.316,0,0,0-4.122.1,5.927,5.927,0,0,0-.242,2.037,4.764,4.764,0,0,0,.242,2.037,1.975,1.975,0,0,0,2.037,1.309,2.052,2.052,0,0,0,2.134-1.261,3.8,3.8,0,0,0,.194-1.261.1.1,0,0,0-.1-.1h-1.5a.541.541,0,1,1,0-1.067h2.279a.523.523,0,0,1,.582.533v.242a5.944,5.944,0,0,1-.291,1.891,3.668,3.668,0,0,1-6.595.048,6.015,6.015,0,0,1-.291-2.376,5.874,5.874,0,0,1,.291-2.376,3.178,3.178,0,0,1,3.3-2.037,3.225,3.225,0,0,1,3.3,1.891" transform="translate(836.18 11.481)" fill="#003a70"/>
        <path id="Path_436" data-name="Path 436" d="M64.95,124.9a4.8,4.8,0,1,0-4.8,4.8,4.812,4.812,0,0,0,4.8-4.8Zm1.746,0a6.5,6.5,0,1,1-6.5-6.5,6.5,6.5,0,0,1,6.5,6.5Zm-5.528,11.4h-.533a15.876,15.876,0,0,1-2.182-.194v13c0,.824.194,1.358.63,1.6a5.288,5.288,0,0,0,3.976,0,1.685,1.685,0,0,0,.679-1.6v-13.19a9.165,9.165,0,0,1-2.57.388Zm39.327-5.043V149.1a1.582,1.582,0,0,1-.824,1.6,6.134,6.134,0,0,1-2.425.388,5.706,5.706,0,0,1-2.376-.388c-.533-.242-.776-.776-.776-1.6V131.25q0-1.309-1.891-2.182A12.725,12.725,0,0,0,87.6,128.2h-2.57c-4.316,0-6.4.291-7.662.873s-1.891,1.309-1.891,2.182V149.1c0,.824-.242,1.358-.824,1.6a6.134,6.134,0,0,1-2.425.388h0a5.706,5.706,0,0,1-2.376-.388c-.533-.242-.776-.776-.776-1.6V132.947a28.494,28.494,0,0,0,6.3-7.516,24.419,24.419,0,0,1,8.777-1.455h2.134c9.456,0,14.208,2.425,14.208,7.274" transform="translate(902.162 49.598)" fill="#003a70"/>
        <g id="Group_756" data-name="Group 756" transform="translate(939.666 139)">
            <g id="Group_754" data-name="Group 754" clip-path="url(#clip-path)">
                <path id="Path_437" data-name="Path 437" d="M286.471,145.426c-7.856,0-11.832-2.279-11.832-6.837v-1.455c0-4.558,3.928-6.837,11.832-6.837h18.766c.63,0,1.067.146,1.261.485a4.029,4.029,0,0,1,0,3.006c-.194.339-.63.485-1.261.485H286.326a10.942,10.942,0,0,0-4.946.824,2.341,2.341,0,0,0-1.455,2.037v1.455a2.455,2.455,0,0,0,1.455,2.037c.97.582,2.619.824,4.946.824h9.407c7.856,0,11.832,2.279,11.832,6.837v1.843c0,4.558-3.928,6.837-11.832,6.837H276.191c-.63,0-1.067-.145-1.261-.485a4.028,4.028,0,0,1,0-3.006c.194-.339.63-.485,1.261-.485h19.688a10.943,10.943,0,0,0,4.946-.824,2.341,2.341,0,0,0,1.455-2.037v-1.843a2.455,2.455,0,0,0-1.455-2.037c-.97-.582-2.619-.824-4.946-.824Zm-35.932,11.541c-7.856,0-11.832-2.279-11.832-6.837v-13c0-4.558,3.928-6.837,11.832-6.837h19.542c.63,0,1.067.146,1.261.485a4.029,4.029,0,0,1,0,3.006c-.194.339-.63.485-1.261.485h-19.4a11.827,11.827,0,0,0-5.092.824q-1.6.8-1.6,2.037v13q0,1.164,1.6,2.037a11.263,11.263,0,0,0,5.092.824H270.13c.63,0,1.067.145,1.261.485a3.05,3.05,0,0,1,.291,1.5,2.968,2.968,0,0,1-.291,1.455c-.194.339-.582.533-1.261.533ZM208.5,146.154h16.487l-8.438-11.444Zm8.05-15.954a4.259,4.259,0,0,1,1.891.339,3,3,0,0,1,1.212.97L237.058,154.4a1.423,1.423,0,0,1,.291.824,1.465,1.465,0,0,1-.242.776,2.835,2.835,0,0,1-.679.63,3.1,3.1,0,0,1-.921.388,3.691,3.691,0,0,1-1.018.145,3.445,3.445,0,0,1-1.018-.145,1.73,1.73,0,0,1-.776-.582l-4.7-6.3H205.781l-4.413,6.3a1.693,1.693,0,0,1-.727.582,3.126,3.126,0,0,1-.97.145,3.691,3.691,0,0,1-1.018-.145,2.7,2.7,0,0,1-.921-.436,2.834,2.834,0,0,1-.679-.63,1.141,1.141,0,0,1-.242-.776,1.546,1.546,0,0,1,.291-.824l16.39-22.888a2.707,2.707,0,0,1,1.212-.97,5.371,5.371,0,0,1,1.843-.291Zm-47.812,4.073v11.783h18.427a21.4,21.4,0,0,0,3.346-.194,9.33,9.33,0,0,0,2.134-.485,2.231,2.231,0,0,0,1.115-.727,7.168,7.168,0,0,0,.339-2.037v-4.9a5.533,5.533,0,0,0-.339-1.988,2.629,2.629,0,0,0-1.115-.776,9.324,9.324,0,0,0-2.134-.485,21.784,21.784,0,0,0-3.346-.194Zm-5.334-2.279c0-1.115.63-1.7,1.891-1.7H187.6a25.193,25.193,0,0,1,4.9.436,13.691,13.691,0,0,1,3.685,1.212,6.63,6.63,0,0,1,2.328,1.891,8.074,8.074,0,0,1,.824,3.54V143a7.919,7.919,0,0,1-.824,3.54,6.629,6.629,0,0,1-2.328,1.891,13.692,13.692,0,0,1-3.685,1.212,25.19,25.19,0,0,1-4.9.436H168.686v17.651a1.443,1.443,0,0,1-.679,1.406,4.31,4.31,0,0,1-1.988.339,4.087,4.087,0,0,1-1.94-.339,1.443,1.443,0,0,1-.679-1.406V131.994" transform="translate(-94.009 -95.48)" fill="#79a3dc"/>
            </g>
            <g id="Group_755" data-name="Group 755" clip-path="url(#clip-path)">
                <path id="Path_438" data-name="Path 438" d="M29.129,96.638c3.879,3.637,8.728,5.819,13.044,5.819a8.944,8.944,0,0,0,6.692-2.619c4.219-4.51,2.279-13.238-4.364-19.494-3.879-3.637-8.777-5.819-13.044-5.819a8.944,8.944,0,0,0-6.692,2.619c-4.267,4.461-2.279,13.19,4.364,19.494ZM23.795,76.224a10.114,10.114,0,0,1,7.662-3.006c4.7,0,9.747,2.279,13.966,6.207,7.177,6.789,9.165,16.342,4.461,21.385a10.114,10.114,0,0,1-7.662,3.006c-4.607,0-9.844-2.328-13.917-6.207-7.225-6.789-9.213-16.39-4.51-21.385Zm34.671,4.655C57.933,68.853,50.708,59.3,42.222,59.3h-.485c-4.17.194-8,2.667-10.814,6.983a24.523,24.523,0,0,0-3.006,6.983c.291-.1.63-.145.921-.242h.048l1.018-.145c1.988-6.692,6.5-11.444,11.88-11.686h.436c7.419,0,13.869,8.874,14.353,19.784A25.235,25.235,0,0,1,52.55,96.493h0a10.694,10.694,0,0,1-.873,2.473.169.169,0,0,1-.048.1l-.582,1.018c-.242.339-.533.679-.824,1.018a8.714,8.714,0,0,1-.97.921c-.048.049-.1.1-.145.1-.339.242-.727.485-1.067.727C54.393,99.839,58.9,91.062,58.466,80.879ZM29.371,75.157a30.212,30.212,0,0,0-.533,7.031,25.731,25.731,0,0,0,4.7,14.159c2.716,3.637,6.11,5.625,9.65,5.625h.194a9.74,9.74,0,0,1-1.212.048A17.268,17.268,0,0,1,33.736,99.5c-3.831-3.928-6.449-10.135-6.789-17.263a31.182,31.182,0,0,1,.388-6.449,7.119,7.119,0,0,1,2.037-.63" transform="translate(-20.788 -58.961)" fill="#79a3dc"/>
            </g>
        </g>
    </g>
</svg>
