<svg xmlns="http://www.w3.org/2000/svg" width="41.652" height="43.883" viewBox="0 0 41.652 43.883">
    <g id="source_icons_industry" transform="translate(0.75 0.75)">
        <path id="Path_5134" data-name="Path 5134" d="M11,19.845c0-2.231,2.231-4.461,6.692-4.461h2.23a6.692,6.692,0,0,0,6.692-6.692V2" transform="translate(-4.308 -2)" fill="none" stroke="#000" stroke-linecap="round" stroke-linejoin="round" stroke-width="1.5"/>
        <path id="Path_5135" data-name="Path 5135" d="M9.692,32.076H3V12H9.692V22.038m0,10.038V22.038m0,10.038h33.46V23.153l-7.807-6.692-8.923,5.577L17.5,16.461,9.692,22.038" transform="translate(-3 10.307)" fill="none" stroke="#000" stroke-linecap="round" stroke-linejoin="round" stroke-width="1.5"/>
        <path id="Path_5136" data-name="Path 5136" d="M17,19.845C17,6.461,25.923,6.461,25.923,6.461S17,7.577,17,2" transform="translate(-17 -2)" fill="none" stroke="#000" stroke-linecap="round" stroke-linejoin="round" stroke-width="1.5"/>
    </g>
</svg>
