<?xml version="1.0" encoding="utf-8"?>
<!-- Generator: Adobe Illustrator 16.0.0, SVG Export Plug-In . SVG Version: 6.00 Build 0)  -->
<!DOCTYPE svg PUBLIC "-//W3C//DTD SVG 1.1//EN" "http://www.w3.org/Graphics/SVG/1.1/DTD/svg11.dtd">
<svg version="1.1" id="Capa_1" xmlns="http://www.w3.org/2000/svg" xmlns:xlink="http://www.w3.org/1999/xlink" x="0px" y="0px"
	 width="654px" height="893px" viewBox="0 0 654 893" enable-background="new 0 0 654 893" xml:space="preserve">
<rect x="0" fill="#EBF3FB" width="654" height="893"/>
<path fill="#FFFFFF" d="M448,626c0,75.11,60.89,136,136,136c25.603,0,49.55-7.08,70-19.382V509.382
	C633.55,497.08,609.603,490,584,490C508.89,490,448,550.89,448,626z"/>
<path fill="#FFFFFF" d="M183.175,280.107l-0.004,0.003c-31.14,4.151-60.202,14.531-87.19,26.988
	c-15.082,91.21-20.647,183.74-16.608,276.1c5.202,109.208,22.903,213.36,51.001,309.802h83.944
	c-30.708-97.767-49.071-202.966-53.978-311.879C156.188,475.247,164.491,375.601,183.175,280.107z"/>
<path fill="#FFFFFF" d="M120.897,199.144c12.456-4.152,26.988-6.227,39.442-10.38h2.076l43.601-6.228
	C225.52,116.888,250.697,55.604,280.688,0h-86.793C163.991,61.909,139.471,128.826,120.897,199.144z"/>
<path fill="#FFFFFF" d="M0,276.718v74.491c67.77-63.699,161.959-98.088,272.441-98.088c122.154,0,256.373,41.775,381.559,116.003
	v-64.785c-124.784-69.33-255.996-107.272-381.559-107.272C166.479,197.067,73.323,223.958,0,276.718z"/>
<circle id="Elipse_675" opacity="0.86" fill="#FFFFFF" enable-background="new    " cx="164" cy="706" r="164"/>
<circle id="Elipse_677" opacity="0.67" fill="#FFFFFF" enable-background="new    " cx="418" cy="507" r="94"/>
<g id="Grupo_10840" transform="translate(-1325.592 1700.948)">
	<g id="cutlery" transform="translate(42.591 32.052)">
		<path id="Trazado_1478" fill="#FFE17A" d="M1889.411-1132.774l6.866,12.259c0.222-0.796,0.544-1.561,0.96-2.274l5.807-9.983
			L1889.411-1132.774z"/>
		<path id="Trazado_1479" fill="#FFF0BC" d="M1879.033-1132.774l5.807,9.984c0.865,1.488,1.322,3.179,1.322,4.9v60.385
			c0,2.694,2.185,4.878,4.878,4.878c2.694,0,4.878-2.184,4.878-4.878v-60.38c0-0.89,0.121-1.774,0.362-2.63l1.914-12.259
			L1879.033-1132.774z"/>
		<path id="Trazado_1480" fill="#FFD237" d="M1891.037-1160.375l6.242,33.445c4.96-2.812,8.393-8.866,8.393-15.886
			C1905.672-1152.515,1899.12-1160.375,1891.037-1160.375z"/>
		<path id="Trazado_1481" fill="#FFF0BC" d="M1899.169-1142.814c0-9.699-3.641-17.56-8.131-17.56
			c-8.082-0.001-14.635,7.862-14.635,17.56c0,9.698,6.552,17.561,14.634,17.561c2.191-0.006,4.342-0.584,6.241-1.676l0.913-5.846
			c0.592-3.314,0.918-6.672,0.976-10.039H1899.169z"/>
		<path id="Trazado_1482" fill="#FFF0BC" d="M1827.624-1137.611v6.076c0.001,1.722,0.457,3.412,1.322,4.9l2.233,3.839
			c0.865,1.488,1.321,3.179,1.321,4.899v60.382c-0.002,2.693,2.181,4.879,4.875,4.882c2.693,0.002,4.879-2.181,4.882-4.875
			c0-0.002,0-0.005,0-0.007v-60.448c0-1.722,0.456-3.412,1.321-4.9l2.235-3.848c0.865-1.488,1.321-3.179,1.322-4.9v-6H1827.624z"/>
		<path id="Trazado_1483" fill="#FFE17A" d="M1853.64-1136.817v32.284c-0.002,1.725,0.682,3.38,1.899,4.601l4.601,4.6h4.473v-64.322
			C1857.676-1154.104,1853.639-1145.701,1853.64-1136.817z"/>
		<path id="Trazado_1484" fill="#FFF0BC" d="M1864.617-1159.655c-2.863,2.851-4.473,6.725-4.473,10.765v91.27
			c-0.023,2.654,2.049,4.855,4.7,4.992c2.692,0.099,4.954-2.005,5.053-4.697c0.002-0.059,0.003-0.118,0.003-0.178v-99.612
			c0-1.796-1.457-3.251-3.253-3.251C1865.91-1160.367,1865.193-1160.116,1864.617-1159.655z"/>
		<path id="Trazado_1485" fill="#79A3DC" d="M1904.465-1131.981c1.881-3.298,2.858-7.034,2.834-10.832
			c-0.001-10.579-7.295-19.188-16.261-19.188c-8.965,0-16.261,8.609-16.261,19.188c-0.024,3.808,0.957,7.553,2.847,10.857
			l5.808,9.984c0.721,1.241,1.1,2.651,1.1,4.087v60.384c0,3.592,2.912,6.504,6.504,6.504c3.593,0,6.504-2.912,6.504-6.504v-60.384
			c0-1.436,0.38-2.846,1.101-4.087l5.806-9.984l0.015-0.024H1904.465z M1891.038-1158.748c7.174,0,13.009,7.148,13.009,15.935
			c0.024,3.232-0.806,6.414-2.406,9.223l-0.244,0.419c-2.408,4.007-6.16,6.294-10.358,6.294c-4.197,0-8.151-2.507-10.6-6.706
			c-1.604-2.81-2.435-5.993-2.41-9.228c0-8.786,5.835-15.936,13.008-15.936L1891.038-1158.748z M1894.29-1117.886v60.384
			c-0.063,1.795-1.568,3.199-3.363,3.136c-1.707-0.06-3.076-1.43-3.137-3.136v-60.384c0-2.011-0.532-3.984-1.543-5.723l-0.656-1.13
			c1.725,0.729,3.578,1.107,5.451,1.11c1.854,0.005,3.689-0.348,5.409-1.037l-0.614,1.056
			C1894.827-1121.871,1894.292-1119.896,1894.29-1117.886z"/>
		<path id="Trazado_1486" fill="#79A3DC" d="M1847.138-1162.002c-0.898,0-1.626,0.728-1.626,1.626v21.14h-3.252v-21.138
			c-0.001-0.898-0.729-1.625-1.628-1.625c-0.896,0.001-1.624,0.729-1.624,1.625v21.138h-3.252v-21.06
			c-0.001-0.898-0.729-1.626-1.628-1.625c-0.896,0.001-1.624,0.728-1.625,1.625v21.06h-3.252v-21.06
			c0-0.898-0.729-1.626-1.627-1.625c-0.896,0.001-1.624,0.728-1.625,1.625v28.761c0.001,2.01,0.533,3.984,1.543,5.722l2.233,3.84
			c0.721,1.241,1.101,2.651,1.1,4.087v60.385c0,3.592,2.912,6.504,6.505,6.504c3.592,0,6.504-2.912,6.504-6.504v-60.462
			c0-1.436,0.379-2.846,1.1-4.087l2.233-3.839c1.01-1.738,1.542-3.712,1.543-5.723v-28.762
			C1848.761-1161.271,1848.035-1162,1847.138-1162.002z M1844.41-1127.525l-2.232,3.84c-1.01,1.737-1.542,3.712-1.543,5.722v60.462
			c-0.063,1.795-1.569,3.199-3.364,3.136c-1.707-0.06-3.076-1.43-3.136-3.136v-60.384c-0.001-2.011-0.533-3.984-1.543-5.723
			l-2.233-3.839c-0.721-1.241-1.101-2.651-1.1-4.087v-4.45h16.26v4.372c0,1.436-0.38,2.846-1.101,4.087H1844.41z"/>
		<path id="Trazado_1487" fill="#79A3DC" d="M1868.763-1161.513c-1.688-0.822-3.699-0.594-5.16,0.587
			c-7.341,5.845-11.609,14.724-11.588,24.107v32.285c-0.006,2.157,0.852,4.228,2.381,5.749l4.119,4.122v37.041
			c-0.006,3.525,2.753,6.436,6.272,6.62c0.08,0,0.16,0,0.239,0c3.59,0,6.5-2.91,6.5-6.5l0,0v-99.615
			c0.011-1.879-1.067-3.594-2.765-4.399L1868.763-1161.513z M1868.276-1057.501c0,1.796-1.456,3.252-3.252,3.252
			c-0.04,0-0.08-0.001-0.12-0.002c-1.773-0.11-3.149-1.59-3.132-3.367v-57.094c-0.001-0.898-0.729-1.626-1.627-1.625
			s-1.624,0.728-1.625,1.625v15.451l-1.823-1.823c-0.918-0.913-1.433-2.154-1.429-3.449v-32.285
			c-0.007-4.569,1.122-9.069,3.287-13.094c-0.021,0.34-0.035,0.68-0.035,1.021v27.675c0.001,0.897,0.729,1.625,1.627,1.624
			c0.897,0,1.624-0.728,1.625-1.624v-27.676c0.011-3.568,1.418-6.99,3.92-9.534c0.723-0.531,1.738-0.376,2.269,0.347
			c0.205,0.279,0.316,0.616,0.315,0.963V-1057.501z"/>
	</g>
</g>
<g id="Grupo_10841" transform="translate(-1706 1813)">
	<path id="Trazado_1497" fill="#FFF0BC" d="M1832.924-1150.152l16.877,93.893h40.238l16.441-93.893l6.055-6.057l-3.023-3.029
		h-78.754l-3.025,3.029L1832.924-1150.152z"/>
	<path id="Trazado_1498" fill="#FFE17A" d="M1879.221-1150.15l-9.088,95.19h21.205l14.273-97.354L1879.221-1150.15z"/>
	<g id="plastic-cup" transform="translate(0 0)">
		<path id="Trazado_1476" fill="#79A3DC" d="M1907.821-1162h-75.458c-3.512,0.004-6.358,2.851-6.362,6.363v0.586
			c0.004,3.513,2.851,6.359,6.362,6.362h0.101l14.6,94.085c0.162,1.038,1.057,1.804,2.107,1.804h41.844
			c1.052,0,1.947-0.767,2.108-1.807l14.6-94.084h0.1c3.513-0.004,6.359-2.85,6.363-6.362v-0.584
			C1914.181-1159.15,1911.334-1161.997,1907.821-1162z M1894.463-1091.061c-0.173-0.046-0.35-0.068-0.528-0.069h-24.063
			c-1.179-0.001-2.134,0.953-2.135,2.132c-0.001,1.178,0.954,2.134,2.132,2.134c0.001,0,0.002,0,0.003,0h23.939l-2.868,18.48
			h-41.699l-2.87-18.481h6.774c1.179,0.001,2.134-0.953,2.135-2.132c0.001-1.178-0.954-2.133-2.132-2.134c-0.001,0-0.002,0-0.003,0
			h-7.107c-0.109,0.001-0.218,0.011-0.325,0.028l-5.593-36.049h59.94L1894.463-1091.061z M1838.718-1136.2h62.749l-0.742,4.781
			h-61.266L1838.718-1136.2z M1851-1057.064l-1.101-7.054h40.38l-1.095,7.054H1851z M1902.131-1140.464h-64.075l-1.276-8.227h66.62
			L1902.131-1140.464z M1909.921-1155.052c0,1.159-0.94,2.1-2.101,2.1h-75.457c-1.159,0-2.1-0.94-2.1-2.1l0,0v-0.585
			c0-1.16,0.94-2.101,2.1-2.101l0,0h75.457c1.16,0,2.101,0.94,2.101,2.101V-1155.052z"/>
		<path id="Trazado_1477" fill="#79A3DC" d="M1863.479-1089.812c-0.451-1.088-1.698-1.604-2.786-1.153
			c-1.087,0.451-1.604,1.699-1.152,2.786c0.451,1.088,1.698,1.604,2.786,1.153c0.107-0.045,0.211-0.099,0.31-0.159
			C1863.517-1087.74,1863.872-1088.848,1863.479-1089.812z"/>
	</g>
</g>
<g id="Grupo_10842" transform="translate(-1825.779 1152.037)">
	<path id="Trazado_1665" fill="#FFF0BC" d="M2204.5-657.5l4,16.5l13,14.5l19,5l20-2.5l12-39h-58L2204.5-657.5z"/>
	<g id="Grupo_1939" transform="translate(372.779 492.963)">
		<path id="Trazado_1500" fill="#FFE17A" d="M1831.025-1160.941l-1.852,4.763v5.556h82.8l3.439-2.117l-1.059-8.199h-83.334
			L1831.025-1160.941z"/>
		<path id="Trazado_1501" fill="#FFE17A" d="M1871.245-1115.704c0,0,7.93-0.264,15.336-13.491
			c7.406-13.229,4.764-20.106,4.764-20.106h20.105l-2.381,10.582l-9.26,15.344l-16.4,7.673L1871.245-1115.704z"/>
		<g id="bowl" transform="translate(0 0)">
			<g id="Grupo_1835">
				<g id="Grupo_1834">
					<path id="Trazado_1473" fill="#79A3DC" d="M1911.27-1162h-80.049c-2.883,0.003-5.218,2.339-5.222,5.221v3.48
						c0.003,2.223,1.41,4.2,3.51,4.932c0.801,19.593,16.906,35.071,36.516,35.093h10.441c17.319-0.021,32.254-12.178,35.786-29.134
						c0.019-0.068,0.033-0.139,0.043-0.209c0.381-1.896,0.61-3.818,0.687-5.75c2.099-0.731,3.506-2.709,3.509-4.932v-3.48
						C1916.488-1159.661,1914.152-1161.997,1911.27-1162z M1911.27-1151.559h-36.544c-0.961,0.001-1.739,0.781-1.737,1.742
						c0.001,0.959,0.778,1.736,1.737,1.737h34.758c-0.062,1.166-0.184,2.327-0.368,3.48h-6.547
						c-0.961,0.001-1.738,0.781-1.737,1.742c0.002,0.959,0.778,1.736,1.737,1.737h5.8c-3.94,14.373-16.996,24.344-31.899,24.363
						h-10.444c-17.577-0.019-32.074-13.771-33.018-31.323h13.875c0.961,0.002,1.741-0.776,1.742-1.737
						c0.002-0.961-0.776-1.741-1.737-1.742c-0.002,0-0.004,0-0.005,0h-15.661c-0.961-0.002-1.739-0.78-1.74-1.74v-3.48
						c0.001-0.96,0.779-1.738,1.74-1.739h80.049c0.961,0.001,1.739,0.779,1.74,1.739v3.481l0,0c0.001,0.962-0.778,1.743-1.74,1.744
						l0,0V-1151.559z"/>
				</g>
			</g>
			<g id="Grupo_1837" transform="translate(24.363 10.441)">
				<g id="Grupo_1836" transform="translate(0 0)">
					<path id="Trazado_1474" fill="#79A3DC" d="M1828.969-1161.49c-0.679-0.679-1.78-0.679-2.459,0.001s-0.678,1.78,0.001,2.46
						c0.68,0.679,1.781,0.678,2.46-0.002c0.325-0.326,0.509-0.769,0.509-1.229
						C1829.478-1160.721,1829.294-1161.163,1828.969-1161.49z"/>
				</g>
			</g>
			<g id="Grupo_1839" transform="translate(69.608 17.402)">
				<g id="Grupo_1838" transform="translate(0 0)">
					<path id="Trazado_1475" fill="#79A3DC" d="M1828.969-1161.49c-0.679-0.679-1.779-0.678-2.458,0.002
						c-0.678,0.679-0.677,1.779,0.002,2.458c0.68,0.678,1.78,0.677,2.458-0.002c0.325-0.326,0.509-0.768,0.509-1.229
						C1829.478-1160.721,1829.295-1161.163,1828.969-1161.49z"/>
				</g>
			</g>
		</g>
	</g>
</g>
<g id="Grupo_10843" transform="translate(-1785 1182)">
	<g id="Grupo_10598" transform="translate(7 34)">
		<path id="Trazado_5098" fill="#A5D9C5" d="M2357-968c22.091,0,40,17.909,40,40s-17.909,40-40,40c-22.092,0-40-17.909-40-40
			S2334.908-968,2357-968z"/>
		<g id="source_icons_refresh-circular" transform="translate(504 207)">
			<circle id="Elipse_577" fill="none" stroke="#003A70" stroke-width="1.5" cx="1853.5" cy="-1134.5" r="25.5"/>
			<path id="Trazado_5081" fill="none" stroke="#003A70" stroke-width="1.5" stroke-linecap="round" stroke-linejoin="round" d="
				M1865.186-1140.45c-2.311-4.296-6.842-6.926-11.718-6.8c-6.627,0-12.077,4.473-12.718,10.2"/>
			<path id="Trazado_5082" fill="none" stroke="#003A70" stroke-width="1.5" stroke-linecap="round" stroke-linejoin="round" d="
				M1859.86-1140.308h4.861c0.845,0,1.53-0.685,1.53-1.53l0,0v-4.137"/>
			<path id="Trazado_5083" fill="none" stroke="#003A70" stroke-width="1.5" stroke-linecap="round" stroke-linejoin="round" d="
				M1841.813-1130.25c1.972,5,6.477,8.5,11.718,8.5c6.628,0,12.077-5.591,12.718-12.75"/>
			<path id="Trazado_5084" fill="none" stroke="#003A70" stroke-width="1.5" stroke-linecap="round" stroke-linejoin="round" d="
				M1847.141-1130.364h-4.861c-0.845,0-1.529,0.685-1.529,1.53l0,0v5.553"/>
		</g>
	</g>
	<g id="Grupo_10573" transform="translate(-678 149)">
		<g id="Grupo_10599" transform="translate(0 -6)">
			<circle id="Elipse_585" fill="#E2C554" cx="3042" cy="-929" r="40"/>
			<g id="Grupo_10544" transform="translate(-87 38)">
				<g id="source_icons_refresh-circular-2" transform="translate(1276 168)">
					<circle id="Elipse_577-2" fill="none" stroke="#003A70" stroke-width="1.5" cx="1853.5" cy="-1134.5" r="25.5"/>
				</g>
				<g enable-background="new    ">
					<path fill="#003A70" d="M3137.973-956.732c0.197,0.198,0.297,0.438,0.297,0.718c0,0.303-0.1,0.548-0.297,0.734
						c-0.199,0.188-0.438,0.28-0.719,0.28h-13.125c-0.326,0-0.594-0.093-0.805-0.28c-0.209-0.187-0.314-0.442-0.314-0.77
						c0-0.257,0.093-0.502,0.279-0.735l8.086-8.925c1.307-1.4,2.274-2.654,2.904-3.763c0.631-1.107,0.945-2.199,0.945-3.272
						c0-1.586-0.479-2.835-1.436-3.745s-2.287-1.365-3.99-1.365c-1.143,0-2.164,0.275-3.063,0.823s-1.568,1.382-2.012,2.502
						c-0.258,0.42-0.561,0.63-0.91,0.63c-0.257,0-0.502-0.093-0.734-0.279c-0.234-0.187-0.351-0.396-0.351-0.63
						c0-0.141,0.046-0.304,0.14-0.49s0.211-0.373,0.351-0.561c0.606-1.26,1.517-2.239,2.729-2.939s2.543-1.05,3.99-1.05
						c2.356,0,4.2,0.642,5.53,1.925c1.329,1.283,1.995,2.963,1.995,5.04c0,1.283-0.35,2.596-1.051,3.938
						c-0.699,1.342-1.854,2.899-3.465,4.672l-6.439,7.245h10.744C3137.535-957.03,3137.774-956.931,3137.973-956.732z"/>
				</g>
				<line id="Línea_1048" fill="none" stroke="#003A70" stroke-width="1.5" x1="3111.5" y1="-983.5" x2="3147.5" y2="-947.5"/>
			</g>
		</g>
	</g>
</g>
</svg>
