<svg xmlns="http://www.w3.org/2000/svg" xmlns:xlink="http://www.w3.org/1999/xlink" width="25.18" height="38.333" viewBox="0 0 25.18 38.333">
    <defs>
        <clipPath id="clip-path">
            <rect id="Rectangle_2395" data-name="Rectangle 2395" width="18.733" height="32.267" fill="#fff" stroke="#d27b83" stroke-width="1"/>
        </clipPath>
    </defs>
    <g id="Group_9889" data-name="Group 9889" transform="translate(-163.191 -656.292)">
        <g id="descarga" transform="translate(169.483 656.292)">
            <g id="Group_9886" data-name="Group 9886" transform="translate(0 0)">
                <rect id="Rectangle_2390" data-name="Rectangle 2390" width="4.722" height="1.574" transform="translate(14.166 6.105)" fill="#d27b83"/>
                <rect id="Rectangle_2391" data-name="Rectangle 2391" width="4.722" height="1.574" transform="translate(0 6.105)" fill="#d27b83"/>
                <rect id="Rectangle_2392" data-name="Rectangle 2392" width="4.486" height="1.574" transform="translate(12.051 3.172) rotate(-45)" fill="#d27b83"/>
                <rect id="Rectangle_2393" data-name="Rectangle 2393" width="1.574" height="4.486" transform="translate(2.607 1.169) rotate(-45)" fill="#d27b83"/>
            </g>
        </g>
        <g id="Group_9888" data-name="Group 9888" transform="translate(163.191 662.358)">
            <g id="Group_9887" data-name="Group 9887" transform="translate(0 0)" clip-path="url(#clip-path)">
                <path id="Path_4728" data-name="Path 4728" d="M34.67,1h0A2.235,2.235,0,0,1,36.9,3.235V17.6h-4.47V3.235A2.235,2.235,0,0,1,34.67,1" transform="translate(-18.598 -0.573)" fill="#fff" stroke="#d27b83" stroke-width="1"/>
                <path id="Path_4729" data-name="Path 4729" d="M34.67,1h0A2.235,2.235,0,0,1,36.9,3.235V17.6h-4.47V3.235A2.235,2.235,0,0,1,34.67,1Z" transform="translate(-18.598 -0.573)" fill="#fff" stroke="#d27b83" stroke-linecap="round" stroke-linejoin="round" stroke-width="1"/>
                <path id="Path_4730" data-name="Path 4730" d="M18.88,36.036v7.612A6.957,6.957,0,0,1,11.923,50.6H7.957A6.957,6.957,0,0,1,1,43.648V34.479a1.754,1.754,0,0,1,1.754-1.754H15.569a3.311,3.311,0,0,1,3.311,3.311" transform="translate(-0.573 -18.765)" fill="#fff" stroke="#d27b83" stroke-width="1"/>
                <path id="Path_4731" data-name="Path 4731" d="M18.88,36.036v7.612A6.957,6.957,0,0,1,11.923,50.6H7.957A6.957,6.957,0,0,1,1,43.648V34.479a1.754,1.754,0,0,1,1.754-1.754H15.569A3.311,3.311,0,0,1,18.88,36.036Z" transform="translate(-0.573 -18.765)" fill="#fff" stroke="#d27b83" stroke-linecap="round" stroke-linejoin="round" stroke-width="1"/>
                <path id="Path_4732" data-name="Path 4732" d="M3.236,26.929h0A2.235,2.235,0,0,1,5.47,29.164v1.325a2.235,2.235,0,1,1-4.469,0V29.164a2.235,2.235,0,0,1,2.235-2.235" transform="translate(-0.574 -15.441)" fill="#fff" stroke="#d27b83" stroke-width="1"/>
                <path id="Path_4733" data-name="Path 4733" d="M3.236,26.929h0A2.235,2.235,0,0,1,5.47,29.164v1.325a2.235,2.235,0,1,1-4.469,0V29.164A2.235,2.235,0,0,1,3.236,26.929Z" transform="translate(-0.574 -15.441)" fill="#fff" stroke="#d27b83" stroke-linecap="round" stroke-linejoin="round" stroke-width="1"/>
                <path id="Path_4734" data-name="Path 4734" d="M13.714,24.989h0a2.235,2.235,0,0,1,2.235,2.235v2.152a2.235,2.235,0,1,1-4.469,0V27.224a2.235,2.235,0,0,1,2.235-2.235" transform="translate(-6.582 -14.329)" fill="#fff" stroke="#d27b83" stroke-width="1"/>
                <path id="Path_4735" data-name="Path 4735" d="M13.714,24.989h0a2.235,2.235,0,0,1,2.235,2.235v2.152a2.235,2.235,0,1,1-4.469,0V27.224A2.235,2.235,0,0,1,13.714,24.989Z" transform="translate(-6.582 -14.329)" fill="#fff" stroke="#d27b83" stroke-linecap="round" stroke-linejoin="round" stroke-width="1"/>
                <path id="Path_4736" data-name="Path 4736" d="M24.13,23.048h0a2.235,2.235,0,0,1,2.235,2.235V30.5H21.9V25.283a2.235,2.235,0,0,1,2.235-2.235" transform="translate(-12.555 -13.216)" fill="#fff" stroke="#d27b83" stroke-width="1"/>
                <path id="Path_4737" data-name="Path 4737" d="M24.13,23.048h0a2.235,2.235,0,0,1,2.235,2.235V30.5H21.9V25.283A2.235,2.235,0,0,1,24.13,23.048Z" transform="translate(-12.555 -13.216)" fill="#fff" stroke="#d27b83" stroke-linecap="round" stroke-linejoin="round" stroke-width="1"/>
                <path id="Path_4738" data-name="Path 4738" d="M29.137,39.964v4.089a6.622,6.622,0,0,1-6.622,6.622h-.2a9.631,9.631,0,0,1-1.163-4.606,9.39,9.39,0,0,1,1.63-5.3c.106-.157.218-.31.333-.459l0,0-.017-.017.019-.013-3.58-3.612a2.181,2.181,0,0,1-.391-.529,1.9,1.9,0,0,1-.1-.224,2.235,2.235,0,0,1,1.662-3.024,2.259,2.259,0,0,1,.414-.039,2.085,2.085,0,0,1,.278.018,2.223,2.223,0,0,1,1.3.637l2.392,2.408Z" transform="translate(-10.83 -18.834)" fill="#fff" stroke="#d27b83" stroke-width="1"/>
                <path id="Path_4739" data-name="Path 4739" d="M29.137,39.964v4.089a6.622,6.622,0,0,1-6.622,6.622h-.2a9.631,9.631,0,0,1-1.163-4.606,9.39,9.39,0,0,1,1.63-5.3c.106-.157.218-.31.333-.459l0,0-.017-.017.019-.013-3.58-3.612a2.181,2.181,0,0,1-.391-.529,1.9,1.9,0,0,1-.1-.224,2.235,2.235,0,0,1,1.662-3.024,2.259,2.259,0,0,1,.414-.039,2.085,2.085,0,0,1,.278.018,2.223,2.223,0,0,1,1.3.637l2.392,2.408Z" transform="translate(-10.83 -18.834)" fill="#fff" stroke="#d27b83" stroke-linecap="round" stroke-linejoin="round" stroke-width="1"/>
            </g>
        </g>
    </g>
</svg>
