<svg xmlns="http://www.w3.org/2000/svg" xmlns:xlink="http://www.w3.org/1999/xlink" version="1.1" id="Capa_1" x="0px" y="0px" viewBox="0 0 123 197.8" style="enable-background:new 0 0 123 197.8;" xml:space="preserve">
<style type="text/css">
	.st0{fill:#DBF9F5;}
	.st1{fill:#F4F7F9;}
	.st2{fill:#FFFFFF;}
	.st3{fill:#344154;}
	.st4{fill:#FF6D3B;}
	.st5{fill:#FF8054;}
	.st6{fill:#646464;}
	.st7{fill:#8A8A8E;}
</style>
    <path class="st0" d="M98,112H30c-13.8,0-25-11.2-25-25c0-13.8,11.2-25,25-25h68c13.8,0,25,11.2,25,25C123,100.8,111.8,112,98,112z   M76,10c0-5.5-4.5-10-10-10H10C4.5,0,0,4.5,0,10s4.5,10,10,10h56C71.5,20,76,15.5,76,10z M113,39c0-5.5-4.5-10-10-10H14  C8.5,29,4,33.5,4,39s4.5,10,10,10h89C108.5,49,113,44.5,113,39z"/>
    <path id="Trazado_1134" class="st1" d="M91.1,47L57.2,66.7L23.5,47v39.1l34.6,19.4l33.7-20.6L91.1,47z"/>
    <path id="Trazado_1141" class="st2" d="M57.6,26.8l33.2,19.3L57.6,66L24.1,46.2L57.6,26.8z"/>
    <path class="st3" d="M92,46.3C92,46.3,92,46.3,92,46.3c0-0.1,0-0.2-0.1-0.3c0,0,0-0.1-0.1-0.1c0-0.1-0.1-0.1-0.2-0.2c0,0,0,0,0,0  L57.9,26.2c-0.2-0.1-0.5-0.1-0.8,0L23.3,45.7c0,0,0,0,0,0c-0.1,0-0.1,0.1-0.2,0.2c0,0,0,0.1-0.1,0.1c-0.1,0.1-0.1,0.2-0.1,0.3  c0,0,0,0,0,0c0,0,0,0,0,0c0,0,0,0,0,0v39c0,0.3,0.1,0.5,0.4,0.6l33.8,19.5c0.1,0.1,0.2,0.1,0.4,0.1s0.3,0,0.4-0.1L91.7,86  c0.2-0.1,0.4-0.4,0.4-0.6V46.3C92,46.3,92,46.3,92,46.3C92,46.3,92,46.3,92,46.3z M57.5,27.7l32.3,18.7L57.5,65L25.2,46.3L57.5,27.7  z M57.5,104L24.4,84.9V47.6l32.3,18.7v25.5c0,0.4,0.3,0.8,0.8,0.8s0.8-0.3,0.8-0.8V66.3l32.3-18.7v37.3L57.5,104z"/>
    <path id="Trazado_1128" class="st4" d="M74,46.3l-16.6-9.6l-16.6,9.6l16.6,9.6L74,46.3z"/>
    <path class="st5" d="M49.3,126.6c-0.1-0.3-0.1-0.7,0-1l5.2-8.7l-10.7,2.9c-0.2,0.1-0.4,0.2-0.4,0.4l-13.7,32.9  c-0.2,0.4,0,0.9,0.4,1.1l19.8,8.3c0.4,0.2,0.9,0,1.1-0.4l6.3-15.1L49.3,126.6z"/>
    <path class="st6" d="M104.7,165.4l-20.5-52.5l0,0c-0.2-0.6-0.7-1-1.2-1.3L70.8,108c-0.3-1.5-0.8-3-1.4-4.5  c-3.2-8.2-9-13.4-13.2-11.7c-2.1,0.8-3.4,3.2-3.7,6.7c-0.2,3.2,0.5,7.1,1.9,10.9c0.4,1.1,0.9,2.1,1.4,3.1l-7.5,12.7l-0.1,0.1  c-0.2,0.6-0.3,1.2,0,1.8l20.5,52.5c0.2,0.6,0.7,1,1.2,1.3c0.3,0.1,0.6,0.2,0.9,0.2c0.3,0,0.6-0.1,0.8-0.2l31.6-12.3  C104.6,167.9,105.2,166.6,104.7,165.4z M56.5,108.6c-1.4-3.5-2-7.1-1.8-10c0.2-2.6,1.1-4.4,2.4-4.9c2.7-1,7.6,3,10.6,10.6  c0.4,1,0.7,2.1,1,3.1l-6.2-1.9c-0.6-0.2-1.2-0.3-1.8,0c-0.6,0.2-1,0.6-1.2,1.2l-2.2,3.7C56.9,109.8,56.7,109.2,56.5,108.6z   M102.7,166.5l-31.6,12.3c-0.1,0-0.2,0-0.2,0c0,0-0.1-0.1-0.2-0.2l-20.5-52.5c0-0.1,0-0.1,0-0.2l6.9-11.6c1.5,2.4,3.3,4.3,5,5.5  c-0.1,0.3-0.1,0.7-0.1,1c0,2.6,2.1,4.7,4.7,4.7s4.7-2.1,4.7-4.7s-2.1-4.7-4.7-4.7c-1.5,0-2.8,0.7-3.7,1.8c-1.6-1.1-3.2-3.1-4.7-5.7  l2.9-4.8l0.1-0.1c0-0.1,0.1-0.2,0.2-0.2c0,0,0.1,0,0.2,0l20.6,6.2c0.1,0,0.1,0.1,0.1,0.2l20.5,52.5  C102.9,166.3,102.8,166.5,102.7,166.5z M66.1,121.3c0.6,0,1.1-0.1,1.6-0.3c0.5-0.2,1-0.5,1.4-0.9c0.1,0.3,0.1,0.5,0.1,0.8  c0,1.5-1.2,2.7-2.7,2.7c-1.5,0-2.7-1.2-2.7-2.7c0,0,0,0,0,0C64.7,121.2,65.4,121.3,66.1,121.3z M64.8,119.1c0.5-0.5,1.2-0.8,1.9-0.8  c0.4,0,0.9,0.1,1.2,0.3c-0.3,0.3-0.6,0.5-0.9,0.6C66.4,119.4,65.6,119.4,64.8,119.1z"/>
    <path class="st7" d="M72.2,186.2c0,0-0.1,0-0.1,0c-0.5-0.1-1-0.6-0.9-1.1c0.1-0.5,0.5-0.9,1.1-0.9c0,0,0.1,0,0.1,0  c0.5,0.1,0.9,0.6,0.9,1.1C73.1,185.8,72.7,186.2,72.2,186.2z M76,185.4c-0.4,0-0.7-0.2-0.9-0.6c-0.2-0.5,0-1.1,0.5-1.3l0.1,0  c0.5-0.2,1.1,0,1.3,0.5c0.2,0.5,0,1.1-0.5,1.3l-0.1,0C76.3,185.3,76.2,185.4,76,185.4z M68.6,184.4c-0.2,0-0.5-0.1-0.7-0.3l-0.1-0.1  c-0.4-0.4-0.4-1,0-1.4c0.4-0.4,1-0.4,1.4,0l0,0c0.4,0.4,0.4,1,0,1.4C69.1,184.3,68.8,184.4,68.6,184.4z M79.8,183.7  c-0.4,0-0.8-0.2-0.9-0.6c-0.2-0.5,0-1.1,0.5-1.3l0.1,0c0.5-0.2,1.1,0,1.3,0.5c0.2,0.5,0,1.1-0.5,1.3l-0.1,0  C80,183.7,79.9,183.7,79.8,183.7z M83.5,182.1c-0.4,0-0.8-0.2-0.9-0.6c-0.2-0.5,0-1.1,0.5-1.3l0.1,0c0.5-0.2,1.1,0,1.3,0.5  c0.2,0.5,0,1.1-0.5,1.3l-0.1,0C83.8,182,83.7,182.1,83.5,182.1z M66.6,180.9c-0.4,0-0.8-0.2-0.9-0.6l0-0.1c-0.2-0.5,0-1.1,0.5-1.3  c0.5-0.2,1.1,0,1.3,0.5l0,0.1c0.2,0.5,0,1.1-0.5,1.3C66.8,180.8,66.7,180.9,66.6,180.9z M87.3,180.4c-0.4,0-0.7-0.2-0.9-0.6  c-0.2-0.5,0-1.1,0.5-1.3l0.1,0c0.5-0.2,1.1,0,1.3,0.5c0.2,0.5,0,1.1-0.5,1.3l-0.1,0C87.6,180.4,87.4,180.4,87.3,180.4z M91.1,178.7  c-0.4,0-0.8-0.2-0.9-0.6c-0.2-0.5,0-1.1,0.5-1.3l0.1,0c0.5-0.2,1.1,0,1.3,0.5c0.2,0.5,0,1.1-0.5,1.3  C91.4,178.7,91.3,178.7,91.1,178.7z M94.8,177.1c-0.4,0-0.8-0.2-0.9-0.6c-0.2-0.5,0-1.1,0.5-1.3l0.1,0c0.5-0.2,1.1,0,1.3,0.5  c0.2,0.5,0,1.1-0.5,1.3l-0.1,0C95.1,177.1,94.9,177.1,94.8,177.1z M64.9,177.1c-0.4,0-0.7-0.2-0.9-0.6l0-0.1c-0.2-0.5,0-1.1,0.5-1.3  c0.5-0.2,1.1,0,1.3,0.5l0,0.1c0.2,0.5,0,1.1-0.5,1.3C65.2,177.1,65.1,177.1,64.9,177.1z M98.6,175.4c-0.4,0-0.8-0.2-0.9-0.6  c-0.2-0.5,0-1.1,0.5-1.3l0.1,0c0.5-0.2,1.1,0,1.3,0.5c0.2,0.5,0,1.1-0.5,1.3C98.9,175.4,98.8,175.4,98.6,175.4z M102.3,173.8  c-0.4,0-0.8-0.2-0.9-0.6c-0.2-0.5,0-1.1,0.5-1.3l0.1,0c0.5-0.2,1.1,0,1.3,0.5c0.2,0.5,0,1.1-0.5,1.3l-0.1,0  C102.6,173.8,102.4,173.8,102.3,173.8z M63.3,173.3c-0.4,0-0.8-0.2-0.9-0.6l0-0.1c-0.2-0.5,0-1.1,0.5-1.3c0.5-0.2,1.1,0,1.3,0.5  l0,0.1c0.2,0.5,0,1.1-0.5,1.3C63.5,173.3,63.4,173.3,63.3,173.3z M106.1,172.2c-0.4,0-0.8-0.2-0.9-0.6c-0.2-0.5,0-1.1,0.5-1.3l0.1,0  c0.5-0.2,1.1,0,1.3,0.5c0.2,0.5,0,1.1-0.5,1.3l-0.1,0C106.3,172.2,106.2,172.2,106.1,172.2z M61.6,169.6c-0.4,0-0.7-0.2-0.9-0.6  c-0.2-0.5,0-1.1,0.5-1.4c0.5-0.2,1.1,0,1.3,0.5l0,0.1c0.2,0.5,0,1.1-0.5,1.3C61.9,169.6,61.8,169.6,61.6,169.6z M60,165.8  c-0.4,0-0.8-0.2-0.9-0.6l0-0.1c-0.2-0.5,0-1.1,0.5-1.3c0.5-0.2,1.1,0,1.3,0.5l0,0.1c0.2,0.5,0,1.1-0.5,1.3  C60.2,165.8,60.1,165.8,60,165.8z M58.3,162.1c-0.4,0-0.8-0.2-0.9-0.6l0-0.1c-0.2-0.5,0-1.1,0.5-1.3c0.5-0.2,1.1,0,1.3,0.5l0,0.1  c0.2,0.5,0,1.1-0.5,1.3C58.6,162.1,58.5,162.1,58.3,162.1z M56.7,158.3c-0.4,0-0.8-0.2-0.9-0.6c-0.2-0.5,0-1.1,0.5-1.4  c0.5-0.2,1.1,0,1.3,0.5l0,0.1c0.2,0.5,0,1.1-0.5,1.3C57,158.3,56.8,158.3,56.7,158.3z M55,154.6c-0.4,0-0.8-0.2-0.9-0.6l0-0.1  c-0.2-0.5,0-1.1,0.5-1.3c0.5-0.2,1.1,0,1.3,0.5l0,0.1c0.2,0.5,0,1.1-0.5,1.3C55.3,154.5,55.2,154.6,55,154.6z M53.4,150.8  c-0.4,0-0.8-0.2-0.9-0.6l0-0.1c-0.2-0.5,0-1.1,0.5-1.3c0.5-0.2,1.1,0,1.3,0.5l0,0.1c0.2,0.5,0,1.1-0.5,1.3  C53.7,150.8,53.5,150.8,53.4,150.8z M51.7,147.1c-0.4,0-0.8-0.2-0.9-0.6l0-0.1c-0.2-0.5,0-1.1,0.5-1.3c0.5-0.2,1.1,0,1.3,0.5l0,0.1  c0.2,0.5,0,1.1-0.5,1.3C52,147,51.9,147.1,51.7,147.1z M50.1,143.3c-0.4,0-0.8-0.2-0.9-0.6l0-0.1c-0.2-0.5,0-1.1,0.5-1.3  c0.5-0.2,1.1,0,1.3,0.5l0,0.1c0.2,0.5,0,1.1-0.5,1.3C50.4,143.3,50.2,143.3,50.1,143.3z M48.4,139.6c-0.4,0-0.7-0.2-0.9-0.6  c-0.2-0.5,0-1.1,0.5-1.4c0.5-0.2,1.1,0,1.3,0.5l0,0.1c0.2,0.5,0,1.1-0.5,1.3C48.7,139.5,48.6,139.6,48.4,139.6z M46.8,135.8  c-0.4,0-0.8-0.2-0.9-0.6l0-0.1c-0.2-0.5,0-1.1,0.5-1.3c0.5-0.2,1.1,0,1.3,0.5l0,0.1c0.2,0.5,0,1.1-0.5,1.3  C47.1,135.8,46.9,135.8,46.8,135.8z M45.1,132.1c-0.4,0-0.8-0.2-0.9-0.6l0-0.1c-0.2-0.5,0-1.1,0.5-1.3c0.5-0.2,1.1,0,1.3,0.5l0,0.1  c0.2,0.5,0,1.1-0.5,1.3C45.4,132,45.3,132.1,45.1,132.1z M44.2,128.1C44.2,128.1,44.2,128.1,44.2,128.1c-0.6-0.1-1-0.5-1-1.1l0-0.1  c0.1-0.5,0.5-0.9,1.1-0.9c0.5,0.1,0.9,0.5,0.9,1.1l0,0.1C45.2,127.7,44.7,128.1,44.2,128.1z M45.7,124.3c-0.2,0-0.3,0-0.5-0.1  c-0.5-0.3-0.7-0.9-0.4-1.4c0.3-0.5,0.9-0.7,1.4-0.4c0.5,0.3,0.7,0.8,0.4,1.3l0,0.1C46.4,124.1,46.1,124.3,45.7,124.3z M47.7,120.7  c-0.2,0-0.3,0-0.5-0.1c-0.5-0.3-0.7-0.9-0.4-1.4l0-0.1c0.3-0.5,0.9-0.7,1.4-0.4c0.5,0.3,0.7,0.9,0.4,1.4l0,0.1  C48.4,120.5,48,120.7,47.7,120.7z M49.6,117.1c-0.2,0-0.3,0-0.5-0.1c-0.5-0.3-0.7-0.9-0.4-1.4c0.3-0.5,0.9-0.7,1.4-0.4  c0.5,0.3,0.7,0.8,0.4,1.3l0,0.1C50.3,116.9,50,117.1,49.6,117.1z"/>
    <path class="st5" d="M98.6,164.1l-5.7-14.3c-0.2-0.5-0.8-0.8-1.3-0.6l-24.8,9.8c-0.2,0.1-0.4,0.3-0.5,0.5c-0.1,0.2-0.1,0.5,0,0.8  l5.7,14.3c0.2,0.4,0.5,0.6,0.9,0.6c0.1,0,0.2,0,0.4-0.1l24.8-9.8c0.2-0.1,0.4-0.3,0.5-0.5C98.7,164.6,98.7,164.4,98.6,164.1z"/>
</svg>