<svg xmlns="http://www.w3.org/2000/svg" width="80" height="80" viewBox="0 0 80 80">
    <g id="Grupo_10845" data-name="Grupo 10845" transform="translate(-435 -156)">
        <circle id="Elipse_585" data-name="Elipse 585" cx="40" cy="40" r="40" transform="translate(435 156)" fill="#e2c554"/>
        <path id="Unión_12" data-name="Unión 12" d="M-569.968-2127.563a26.157,26.157,0,0,1-8.343-5.625,26.163,26.163,0,0,1-5.626-8.344A26.088,26.088,0,0,1-586-2151.75a26.094,26.094,0,0,1,2.063-10.219,26.15,26.15,0,0,1,5.626-8.343,26.129,26.129,0,0,1,8.343-5.625A26.074,26.074,0,0,1-559.75-2178a26.073,26.073,0,0,1,10.218,2.064,26.129,26.129,0,0,1,8.343,5.625,26.15,26.15,0,0,1,5.626,8.343,26.094,26.094,0,0,1,2.063,10.219,26.088,26.088,0,0,1-2.063,10.218,26.163,26.163,0,0,1-5.626,8.344,26.157,26.157,0,0,1-8.343,5.625,26.09,26.09,0,0,1-10.218,2.063A26.091,26.091,0,0,1-569.968-2127.563ZM-584.5-2151.75A24.778,24.778,0,0,0-559.75-2127a24.649,24.649,0,0,0,16.432-6.257l-7.7-7.7a.91.91,0,0,1-.257.429,1.015,1.015,0,0,1-.718.279H-565.12a1.171,1.171,0,0,1-.8-.279.977.977,0,0,1-.316-.77,1.161,1.161,0,0,1,.28-.735l6.591-7.275-18.873-18.872A24.648,24.648,0,0,0-584.5-2151.75Zm30.72-11.425a6.685,6.685,0,0,1,2,5.04,8.489,8.489,0,0,1-1.05,3.938,23.584,23.584,0,0,1-3.465,4.672l-.548.616,14.621,14.621A24.67,24.67,0,0,0-535-2151.75a24.778,24.778,0,0,0-24.75-24.75,24.674,24.674,0,0,0-17.462,7.227l18.85,18.85.487-.536a20.9,20.9,0,0,0,2.9-3.763,6.587,6.587,0,0,0,.946-3.272,4.926,4.926,0,0,0-1.435-3.746,5.559,5.559,0,0,0-3.99-1.364,5.757,5.757,0,0,0-3.063.823,4.95,4.95,0,0,0-2.012,2.5,1.087,1.087,0,0,1-.911.63,1.162,1.162,0,0,1-.734-.281.8.8,0,0,1-.351-.629,1.122,1.122,0,0,1,.14-.49,3.643,3.643,0,0,1,.35-.56,6.655,6.655,0,0,1,2.73-2.94,7.851,7.851,0,0,1,3.99-1.05A7.629,7.629,0,0,1-553.78-2163.174Zm-8.96,20.894h10.4l-5.506-5.505Z" transform="translate(1035.25 2348.25)"/>
    </g>
</svg>
