<svg xmlns="http://www.w3.org/2000/svg" width="39.266" height="39.266" viewBox="0 0 39.266 39.266">
    <g id="source_icons_trash" transform="translate(-2.25 -2.25)">
        <path id="Path_5143" data-name="Path 5143" d="M34.373,11V30.722a1.259,1.259,0,0,1-1.259,1.259H6.259A1.259,1.259,0,0,1,5,30.722V11" transform="translate(2.196 8.785)" fill="none" stroke="#000" stroke-linecap="round" stroke-linejoin="round" stroke-width="1.5"/>
        <path id="Path_5144" data-name="Path 5144" d="M10,23.589V11" transform="translate(7.687 8.785)" fill="none" stroke="#000" stroke-linecap="round" stroke-linejoin="round" stroke-width="1.5"/>
        <path id="Path_5145" data-name="Path 5145" d="M14,23.589V11" transform="translate(12.079 8.785)" fill="none" stroke="#000" stroke-linecap="round" stroke-linejoin="round" stroke-width="1.5"/>
        <path id="Path_5146" data-name="Path 5146" d="M40.766,11.392H30.275M3,11.392H13.491m0,0V4.259A1.259,1.259,0,0,1,14.749,3H29.016a1.259,1.259,0,0,1,1.259,1.259v7.134m-16.785,0H30.275" fill="none" stroke="#000" stroke-linecap="round" stroke-linejoin="round" stroke-width="1.5"/>
    </g>
</svg>
