<svg xmlns="http://www.w3.org/2000/svg" width="57.474" height="37.883" viewBox="0 0 57.474 37.883">
    <g id="source_icons_truck" transform="translate(-1.25 -5.25)">
        <path id="Path_5137" data-name="Path 5137" d="M10.6,26.195A5.6,5.6,0,1,0,5,20.6,5.6,5.6,0,0,0,10.6,26.195Z" transform="translate(5.396 16.188)" fill="none" stroke="#000" stroke-linecap="round" stroke-linejoin="round" stroke-miterlimit="1.5" stroke-width="1.5"/>
        <path id="Path_5138" data-name="Path 5138" d="M20.6,26.195A5.6,5.6,0,1,0,15,20.6,5.6,5.6,0,0,0,20.6,26.195Z" transform="translate(23.383 16.188)" fill="none" stroke="#000" stroke-linecap="round" stroke-linejoin="round" stroke-miterlimit="1.5" stroke-width="1.5"/>
        <path id="Path_5139" data-name="Path 5139" d="M35.584,36.785V7.679A1.679,1.679,0,0,0,33.9,6H3.679A1.679,1.679,0,0,0,2,7.679V35.106a1.679,1.679,0,0,0,1.679,1.679H9.416" transform="translate(0 0)" fill="none" stroke="#000" stroke-linecap="round" stroke-width="1.5"/>
        <path id="Path_5140" data-name="Path 5140" d="M22.9,17H9.05" transform="translate(12.681 19.785)" fill="none" stroke="#000" stroke-linecap="round" stroke-width="1.5"/>
        <path id="Path_5141" data-name="Path 5141" d="M14,9H29.7a1.679,1.679,0,0,1,1.535,1l5.009,11.271a1.68,1.68,0,0,1,.145.682v7.76a1.679,1.679,0,0,1-1.679,1.679H29.393" transform="translate(21.584 5.396)" fill="none" stroke="#000" stroke-linecap="round" stroke-width="1.5"/>
        <path id="Path_5142" data-name="Path 5142" d="M14,17h2.8" transform="translate(21.584 19.785)" fill="none" stroke="#000" stroke-linecap="round" stroke-width="1.5"/>
    </g>
</svg>
