<svg xmlns="http://www.w3.org/2000/svg" width="57" height="53" viewBox="0 0 57 53">
    <g id="Group_10716" data-name="Group 10716" transform="translate(1010 -4786)">
        <g id="Union_2" data-name="Union 2" transform="translate(-1010 4809)" fill="#fff">
            <path d="M 40.51412963867188 29.5 L 12.16640186309814 29.5 L 11.93797016143799 29.48978996276855 C 9.675559997558594 29.38863945007324 7.492899894714355 28.50815010070801 5.792059898376465 27.01049995422363 C 4.105810165405273 25.52569007873535 2.959490060806274 23.49810981750488 2.564280033111572 21.30124092102051 L 2.52249002456665 21.06896018981934 L 2.31660008430481 20.95358085632324 C 1.196079969406128 20.3257007598877 0.5 19.1392707824707 0.5 17.85729026794434 C 0.5 16.05290031433105 1.850720047950745 14.53765964508057 3.641890048980713 14.3326997756958 L 3.876250028610229 14.30587959289551 L 4.004580020904541 14.10795021057129 C 4.821109771728516 12.84858989715576 5.930769920349121 11.77118968963623 7.213600158691406 10.99221992492676 C 8.528989791870117 10.1934700012207 10.03602027893066 9.705360412597656 11.57174968719482 9.580650329589844 L 11.97371959686279 9.548009872436523 L 12.02690982818604 9.148229598999023 C 12.34288024902344 6.773379802703857 13.51251029968262 4.587669849395752 15.32034969329834 2.993720054626465 C 17.14425086975098 1.38561999797821 19.48995018005371 0.5 21.92535018920898 0.5 C 24.24086952209473 0.5 26.49777984619141 1.309769988059998 28.28033065795898 2.780139923095703 L 28.59852981567383 3.042609930038452 L 28.91670036315918 2.780100107192993 C 30.69878959655762 1.309759974479675 32.95552825927734 0.5 35.27119827270508 0.5 C 37.93432998657227 0.5 40.43917846679688 1.534759998321533 42.3243293762207 3.413660049438477 C 44.20901870727539 5.292099952697754 45.25054931640625 7.791069984436035 45.2570686340332 10.45022964477539 L 45.25777816772461 10.73793983459473 L 45.50688171386719 10.8818998336792 C 46.99803924560547 11.74370956420898 48.24858856201172 12.98293018341064 49.12334060668945 14.46560001373291 C 50.02396011352539 15.99211978912354 50.5 17.74128913879395 50.5 19.52400016784668 C 50.5 25.02478981018066 46.02035903930664 29.5 40.51412963867188 29.5 Z" stroke="none"/>
            <path d="M 40.51412963867188 29 C 45.74465942382812 29 50 24.74908065795898 50 19.52400016784668 C 50 17.83058929443359 49.54793930053711 16.16927909851074 48.69269943237305 14.71967029571533 C 47.86161041259766 13.31099987030029 46.67345809936523 12.13360977172852 45.25669097900391 11.31480026245117 L 44.75848007202148 11.02686977386475 L 44.7570686340332 10.45145034790039 C 44.75088119506836 7.925700187683105 43.76155853271484 5.552060127258301 41.97135925292969 3.767800092697144 C 40.18059158325195 1.982959985733032 37.80109024047852 1 35.27119827270508 1 C 33.07138061523438 1 30.92765045166016 1.769150018692017 29.23489952087402 3.165780067443848 L 28.59856986999512 3.690799951553345 L 27.9621696472168 3.165849924087524 C 26.26896095275879 1.769180059432983 24.12504959106445 1 21.92535018920898 1 C 19.61178970336914 1 17.38352966308594 1.841240048408508 15.65102005004883 3.368769884109497 C 13.93365001678467 4.88293981552124 12.82260036468506 6.958879947662354 12.52254962921143 9.214170455932617 L 12.41617012023926 10.01371955871582 L 11.61221981048584 10.07901000976562 C 10.13278961181641 10.19915008544922 8.740200042724609 10.65019035339355 7.473110198974609 11.41959953308105 C 6.254260063171387 12.1597204208374 5.199930191040039 13.18340015411377 4.42411994934082 14.37996006011963 L 4.167459964752197 14.77581977844238 L 3.698740005493164 14.82946014404297 C 2.160200119018555 15.0055103302002 1 16.30718994140625 1 17.85729026794434 C 1 18.95856094360352 1.598150014877319 19.97784996032715 2.561019897460938 20.51738929748535 L 2.972800016403198 20.74814033508301 L 3.056380033493042 21.21270942687988 C 3.431689977645874 23.29895973205566 4.520589828491211 25.22471046447754 6.122489929199219 26.63524055480957 C 7.738100051879883 28.05784034729004 9.81134033203125 28.89421081542969 11.96030044555664 28.99028968811035 L 12.17749404907227 29 L 40.51412963867188 29 M 40.51412963867188 30 L 11.91563987731934 30 L 11.91563987731934 29.98929023742676 C 6.976109981536865 29.76845932006836 2.925640106201172 26.13386917114258 2.072180032730103 21.3897705078125 C 0.8355799913406372 20.69684028625488 -3.552713678800501e-15 19.37462997436523 -3.552713678800501e-15 17.85729026794434 C -3.552713678800501e-15 15.77931022644043 1.567020058631897 14.06686019897461 3.585050106048584 13.83594036102295 C 5.306690216064453 11.18058967590332 8.198749542236328 9.352910041809082 11.53127956390381 9.082289695739746 C 12.21335029602051 3.955719947814941 16.60692024230957 -1.77635683940025e-15 21.92535018920898 -1.77635683940025e-15 C 24.46059036254883 -1.77635683940025e-15 26.78520965576172 0.8987100124359131 28.59848976135254 2.394429922103882 C 30.41134071350098 0.8987100124359131 32.7359504699707 -1.77635683940025e-15 35.27119827270508 -1.77635683940025e-15 C 41.05379104614258 -1.77635683940025e-15 45.7429084777832 4.675710201263428 45.7570686340332 10.44900035858154 C 48.8915901184082 12.26056957244873 51 15.64585971832275 51 19.52400016784668 C 51 25.30971908569336 46.30530166625977 30 40.51412963867188 30 Z" stroke="none" fill="#000"/>
        </g>
        <g id="Ellipse_603" data-name="Ellipse 603" transform="translate(-1001 4825)" fill="#fff" stroke="#000" stroke-width="1">
            <circle cx="3" cy="3" r="3" stroke="none"/>
            <circle cx="3" cy="3" r="2.5" fill="none"/>
        </g>
        <g id="Ellipse_605" data-name="Ellipse 605" transform="translate(-988 4815)" fill="#fff" stroke="#000" stroke-width="1">
            <ellipse cx="4" cy="3.5" rx="4" ry="3.5" stroke="none"/>
            <ellipse cx="4" cy="3.5" rx="3.5" ry="3" fill="none"/>
        </g>
        <g id="Union_3" data-name="Union 3" transform="translate(-986 4825)" fill="#fff">
            <path d="M 10.38741016387939 12.5 C 9.157939910888672 12.5 8.040679931640625 11.71786975860596 7.541059970855713 10.50741958618164 L 7.349860191345215 10.04419040679932 L 6.887060165405273 10.2364501953125 C 6.347469806671143 10.46061038970947 5.777740001678467 10.57427024841309 5.193709850311279 10.57427024841309 C 2.605590105056763 10.57427024841309 0.5 8.314620018005371 0.5 5.537129878997803 C 0.5 2.759649991989136 2.605590105056763 0.5 5.193709850311279 0.5 C 6.405889987945557 0.5 7.556419849395752 0.9945499897003174 8.433369636535645 1.892549991607666 C 9.315839767456055 2.796210050582886 9.830650329589844 4.012110233306885 9.882960319519043 5.316259860992432 L 9.902339935302734 5.799270153045654 L 10.38572025299072 5.796209812164307 C 12.10369968414307 5.796199798583984 13.5 7.299860000610352 13.5 9.148099899291992 C 13.5 10.99633979797363 12.10369968414307 12.5 10.38741016387939 12.5 Z" stroke="none"/>
            <path d="M 10.38741016387939 12 C 11.82800006866455 12 13 10.72064018249512 13 9.148099899291992 C 13 7.575560092926025 11.82800006866455 6.296199798583984 10.38889026641846 6.296199798583984 L 9.422109603881836 6.302320003509521 L 9.383359909057617 5.336299896240234 C 9.285829544067383 2.904730081558228 7.445519924163818 1 5.193709850311279 1 C 2.881289958953857 1 1 3.03535008430481 1 5.537129878997803 C 1 8.038920402526855 2.881289958953857 10.07427024841309 5.193709850311279 10.07427024841309 C 5.711569786071777 10.07427024841309 6.216760158538818 9.973480224609375 6.695240020751953 9.774709701538086 L 7.620830059051514 9.390190124511719 L 8.003239631652832 10.31665992736816 C 8.425319671630859 11.33924961090088 9.361160278320312 12 10.38741016387939 12 M 10.38741016387939 13 C 8.909029960632324 13 7.638329982757568 12.05358982086182 7.078879833221436 10.6981897354126 C 6.49452018737793 10.94095039367676 5.858630180358887 11.07427024841309 5.193709850311279 11.07427024841309 C 2.325340032577515 11.07427024841309 -8.881784197001252e-16 8.595170021057129 -8.881784197001252e-16 5.537129878997803 C -8.881784197001252e-16 2.479099988937378 2.325340032577515 -8.881784197001252e-16 5.193709850311279 -8.881784197001252e-16 C 7.986440181732178 -8.881784197001252e-16 10.26438045501709 2.349829912185669 10.38255977630615 5.296219825744629 C 10.38414001464844 5.296209812164307 10.38582992553711 5.296199798583984 10.38741016387939 5.296199798583984 C 12.38271045684814 5.296199798583984 14 7.020870208740234 14 9.148099899291992 C 14 11.27532958984375 12.38271045684814 13 10.38741016387939 13 Z" stroke="none" fill="#000"/>
        </g>
        <g id="Ellipse_604" data-name="Ellipse 604" transform="translate(-964 4828)" fill="#fff" stroke="#000" stroke-width="1">
            <circle cx="5.5" cy="5.5" r="5.5" stroke="none"/>
            <circle cx="5.5" cy="5.5" r="5" fill="none"/>
        </g>
        <g id="Union_4" data-name="Union 4" transform="translate(-973 4809)" fill="#fff">
            <path d="M 6.322840213775635 13.5 C 4.357329845428467 13.5 2.758270025253296 11.90093994140625 2.758270025253296 9.935429573059082 C 2.758270025253296 9.806340217590332 2.765239953994751 9.676170349121094 2.778990030288696 9.54850959777832 L 2.811170101165771 9.249819755554199 L 2.562550067901611 9.081179618835449 C 1.271049976348877 8.205100059509277 0.5 6.751850128173828 0.5 5.193709850311279 C 0.5 2.605590105056763 2.605590105056763 0.5 5.193709850311279 0.5 C 7.399489879608154 0.5 9.330820083618164 2.063669919967651 9.785969734191895 4.218050003051758 L 9.886260032653809 4.692770004272461 L 10.36378002166748 4.606790065765381 C 10.5193395614624 4.578770160675049 10.67922019958496 4.56456995010376 10.83899021148682 4.56456995010376 C 12.3062801361084 4.56456995010376 13.5 5.758480072021484 13.5 7.225989818572998 C 13.5 8.693499565124512 12.3062801361084 9.887410163879395 10.83899021148682 9.887410163879395 C 10.7055196762085 9.887410163879395 10.57141971588135 9.877449989318848 10.44040966033936 9.857810020446777 L 9.921990394592285 9.780099868774414 L 9.868860244750977 10.30161952972412 C 9.683110237121582 12.12499046325684 8.158650398254395 13.5 6.322840213775635 13.5 Z" stroke="none"/>
            <path d="M 6.322840213775635 13 C 7.901169776916504 13 9.211779594421387 11.81816005706787 9.371439933776855 10.25094032287598 L 9.477689743041992 9.207920074462891 L 10.51453018188477 9.363340377807617 C 10.62108993530273 9.37930965423584 10.73025035858154 9.387410163879395 10.83899021148682 9.387410163879395 C 12.0305700302124 9.387410163879395 13 8.417799949645996 13 7.225989818572998 C 13 6.034180164337158 12.0305700302124 5.06456995010376 10.83899021148682 5.06456995010376 C 10.70886039733887 5.06456995010376 10.57878971099854 5.076109886169434 10.45238971710205 5.098869800567627 L 9.497349739074707 5.27085018157959 L 9.296770095825195 4.321400165557861 C 8.890170097351074 2.396850109100342 7.164589881896973 1 5.193709850311279 1 C 2.881289958953857 1 1 2.881289958953857 1 5.193709850311279 C 1 6.585899829864502 1.689059972763062 7.884479999542236 2.843240022659302 8.667389869689941 L 3.3404700756073 9.004679679870605 L 3.276119947433472 9.602060317993164 C 3.264270067214966 9.711999893188477 3.258270025253296 9.824159622192383 3.258270025253296 9.935429573059082 C 3.258270025253296 11.62524032592773 4.633029937744141 13 6.322840213775635 13 M 6.322840213775635 14 C 4.077980041503906 14 2.258270025253296 12.18029022216797 2.258270025253296 9.935429573059082 C 2.258270025253296 9.786660194396973 2.266289949417114 9.639590263366699 2.281869888305664 9.494959831237793 C 0.9048799872398376 8.56089973449707 -8.881784197001252e-16 6.982930183410645 -8.881784197001252e-16 5.193709850311279 C -8.881784197001252e-16 2.325340032577515 2.325340032577515 -8.881784197001252e-16 5.193709850311279 -8.881784197001252e-16 C 7.692150115966797 -8.881784197001252e-16 9.778559684753418 1.764080047607422 10.27517032623291 4.114699840545654 C 10.45814990997314 4.08174991607666 10.64651012420654 4.06456995010376 10.83899021148682 4.06456995010376 C 12.58471965789795 4.06456995010376 14 5.479849815368652 14 7.225989818572998 C 14 8.971719741821289 12.58471965789795 10.38741016387939 10.83899021148682 10.38741016387939 C 10.67837047576904 10.38741016387939 10.52046012878418 10.37539958953857 10.36629009246826 10.35229015350342 C 10.15754985809326 12.40133953094482 8.426609992980957 14 6.322840213775635 14 Z" stroke="none" fill="#000"/>
        </g>
        <g id="Ellipse_606" data-name="Ellipse 606" transform="translate(-1002 4804)" fill="#fff" stroke="#000" stroke-width="1">
            <circle cx="5.5" cy="5.5" r="5.5" stroke="none"/>
            <circle cx="5.5" cy="5.5" r="5" fill="none"/>
        </g>
        <g id="Ellipse_617" data-name="Ellipse 617" transform="translate(-984 4795)" fill="#fff" stroke="#000" stroke-width="1">
            <circle cx="5.5" cy="5.5" r="5.5" stroke="none"/>
            <circle cx="5.5" cy="5.5" r="5" fill="none"/>
        </g>
        <g id="Ellipse_618" data-name="Ellipse 618" transform="translate(-971 4786)" fill="#fff" stroke="#000" stroke-width="1">
            <circle cx="3.5" cy="3.5" r="3.5" stroke="none"/>
            <circle cx="3.5" cy="3.5" r="3" fill="none"/>
        </g>
    </g>
</svg>
